<svg width="381" height="381" viewBox="0 0 381 381" fill="none" xmlns="http://www.w3.org/2000/svg">
    <g filter="url(#filter0_d_67_181)">
        <path
            d="M376.92 186.46C376.92 289.439 293.439 372.92 190.46 372.92C87.481 372.92 4 289.439 4 186.46C4 83.481 87.481 0 190.46 0C293.439 0 376.92 83.481 376.92 186.46Z"
            fill="#323A40" />
        <path
            d="M160.855 231.101C157.999 230.663 154.835 230.756 153 229.24C139.423 218.023 126.13 206.463 112.701 195.066C109.089 192.001 108.661 188.799 111.781 185.203C115.375 181.063 118.949 176.905 122.613 172.828C124.865 170.324 127.483 170.03 130.058 172.315C132.654 174.619 132.502 177.222 130.418 179.81C128.243 182.51 126.03 185.177 123.283 188.53C128.614 193.544 133.655 198.522 138.953 203.21C146.046 209.485 153.345 215.526 160.542 221.685C163.86 224.524 164.852 227.557 160.855 231.101Z"
            fill="#5BEF9A" />
        <path
            d="M239.197 155.821C245.163 160.916 250.859 165.78 256.526 170.678C261.382 174.874 261.596 177.139 257.56 181.956C254.569 185.528 251.489 189.024 248.479 192.581C246.034 195.471 243.347 196.978 239.979 194.021C236.769 191.202 238.015 188.443 240.265 185.759C242.506 183.086 244.739 180.407 247.378 177.25C244.614 174.783 241.988 172.359 239.278 170.032C229.558 161.685 219.725 153.465 210.153 144.951C208.504 143.485 206.977 140.797 207.037 138.721C207.165 134.351 212.18 132.992 216.085 136.217C223.781 142.576 231.314 149.131 239.197 155.821Z"
            fill="#EBB04E" />
        <path
            d="M202.82 125.686C199.819 129.855 196.669 132.984 191.181 132.163C190.095 132 188.001 133.258 187.736 134.232C187.38 135.534 188.333 137.206 188.784 138.701C188.868 138.981 189.215 139.203 189.477 139.404C193.95 142.841 197.251 146.706 195.303 152.975C193.258 159.552 188.643 163.472 182.185 164.556C178.418 165.188 174.227 164.66 170.49 163.665C167.527 162.876 165.483 160.233 166.6 156.631C167.701 153.081 170.662 153.675 173.254 154.12C177.179 154.794 180.853 154.99 184.178 150.846C182.295 149.07 180.445 147.293 178.56 145.554C172.554 140.011 172.031 131.542 177.747 125.655C182.944 120.303 189.519 117.867 196.835 119.85C199.187 120.488 200.912 123.434 202.82 125.686Z"
            fill="#E16739" />
        <path
            d="M281.927 169.301C280.367 162.23 278.911 155.575 277.369 148.94C276.556 145.445 277.037 142.448 280.82 141.268C284.797 140.028 286.577 142.712 287.771 145.927C294.08 162.916 296.21 180.397 293.828 198.385C293.381 201.756 292.112 204.768 288.049 204.561C283.678 204.339 283.027 201.176 282.948 197.47C282.752 188.219 282.328 178.974 281.927 169.301Z"
            fill="#DF6639" />
        <path
            d="M82.9046 216.114C78.1542 200.733 76.9349 185.453 79.0421 169.904C79.5001 166.524 80.6086 163.591 84.827 163.897C88.9058 164.194 89.9129 167.038 89.9341 170.544C89.9402 171.542 89.947 172.541 89.8937 173.536C89.0873 188.579 90.1411 203.403 95.0176 217.788C95.3364 218.729 95.9433 219.906 95.6391 220.66C94.7975 222.744 93.9473 225.748 92.3416 226.344C90.7012 226.953 87.4459 225.733 86.187 224.232C84.4777 222.195 83.9942 219.129 82.9046 216.114Z"
            fill="#EAAF4E" />
        <path
            d="M184.069 238.085C173.988 237.931 171.269 234.441 174.544 225.395C177.815 216.362 181.574 207.491 185.505 198.722C186.407 196.708 188.635 194.685 190.706 193.96C192.946 193.176 196.527 192.976 198.006 194.263C199.259 195.354 199.125 199.254 198.252 201.346C195.51 207.913 192.118 214.207 189.003 220.62C187.932 222.824 186.936 225.065 185.486 228.195C187.92 227.873 189.501 227.802 191.012 227.437C194.843 226.511 196.567 229.429 196.946 231.893C197.198 233.533 195.086 236.545 193.349 237.245C190.725 238.303 187.504 237.88 184.069 238.085Z"
            fill="#528FD1" />
        <path
            d="M119.976 260.049C122.61 260.487 125.351 260.458 127.128 261.752C140.127 271.22 154.374 277.624 170.252 280.347C173.863 280.966 176.735 282.446 176.079 286.852C175.374 291.59 171.795 291.333 168.421 290.817C150.431 288.064 134.426 280.676 120.078 269.626C115.934 266.434 115.981 264.497 119.976 260.049Z"
            fill="#A970F1" />
        <path
            d="M124.327 95.3427C131.332 91.4845 138.045 87.8332 144.762 84.1892C148.66 82.0748 151.668 83.362 153.397 87.0669C155.148 90.8186 152.334 92.5664 149.45 93.8139C134.213 100.404 121.102 109.825 110.552 122.714C108.216 125.567 105.491 126.577 102.394 123.917C99.4655 121.402 99.9056 118.438 102.329 116.071C109.451 109.115 116.785 102.376 124.327 95.3427Z"
            fill="#528FD0" />
        <path
            d="M254.238 254.247C257.032 251.146 259.53 248.255 262.131 245.462C264.364 243.063 266.934 241.691 269.973 244.116C273.162 246.659 272.663 249.665 270.41 252.42C258.724 266.71 244.357 277.451 227.267 284.462C224.06 285.778 220.941 285.704 219.385 281.827C217.839 277.973 219.997 275.784 223.215 274.43C234.665 269.613 244.973 263.065 254.238 254.247Z"
            fill="#5BEF9A" />
        <path
            d="M244.923 93.1095C247.557 94.8946 250.602 96.0359 252.004 98.2278C253.452 100.492 253.304 103.778 253.854 106.616C251.266 106.657 247.932 107.769 246.209 106.568C232.505 97.0179 217.7 90.3576 201.163 87.6561C197.721 87.094 195.652 85.115 196.395 81.4323C197.248 77.2057 200.467 76.4614 204.075 77.1484C218.551 79.9052 232.276 84.6456 244.923 93.1095Z"
            fill="#E9AF4E" />
        <path
            d="M154.087 139.735C157.796 142.502 157.682 145.348 155.21 148.488C151.319 153.43 147.498 158.427 143.624 163.382C141.722 165.815 138.959 167.66 136.456 165.516C134.98 164.253 134.01 160.145 134.947 158.705C139.238 152.111 144.18 145.923 149.183 139.83C149.846 139.022 152.192 139.595 154.087 139.735Z"
            fill="#A56FED" />
        <path
            d="M227.3 202.1C229.946 199.368 232.474 199.192 235.003 201.529C237.606 203.935 237.138 206.544 235.179 209.08C231.216 214.211 227.225 219.321 223.22 224.419C220.948 227.311 218.216 228.344 215.051 225.883C211.967 223.487 212.629 220.708 214.706 218.033C218.785 212.784 222.92 207.578 227.3 202.1Z"
            fill="#DF663C" />
        <path
            d="M95.8424 143.786C92.8279 145.169 89.8047 145.52 88.9837 142.266C88.4752 140.251 89.623 137.326 90.9945 135.561C91.5722 134.818 95.2142 135.365 96.4573 136.464C98.7752 138.513 99.1296 141.327 95.8424 143.786Z"
            fill="#508AC8" />
        <path
            d="M276.093 124.574C276.36 127.897 275.506 130.574 272.188 130.528C270.379 130.503 267.266 128.932 267.097 127.727C266.813 125.708 267.801 122.696 269.344 121.4C272.624 118.647 274.609 121.294 276.093 124.574Z"
            fill="#D66439" />
        <path
            d="M181.328 85.3623C178.942 85.6423 175.582 86.4448 174.981 85.4976C173.818 83.6626 173.764 80.7542 174.218 78.4844C174.358 77.7883 178.11 76.8599 179.409 77.5475C182.248 79.0506 184.735 81.4782 181.328 85.3623Z"
            fill="#E2AA4C" />
        <path
            d="M275.894 224.758C279.517 222.242 282.283 223.17 283.928 226.55C285.533 229.85 282.934 231.448 280.419 232.483C279.495 232.864 277.698 232.596 277.056 231.913C275.279 230.019 273.307 227.864 275.894 224.758Z"
            fill="#57E092" />
        <path
            d="M196.719 290.523C193.425 291.793 190.741 291.288 190.38 287.919C190.197 286.208 191.62 283.303 193.048 282.715C194.639 282.061 197.837 282.76 198.952 284.058C200.913 286.342 200.26 289.028 196.719 290.523Z"
            fill="#A26CE7" />
        <path
            d="M100.338 247.009C96.7714 244.905 95.688 242.029 98.2735 239.189C99.3122 238.048 102.577 237.583 103.85 238.378C105.184 239.21 106.314 242.31 105.757 243.711C105.144 245.25 102.503 245.981 100.338 247.009Z"
            fill="#DEA64C" />
    </g>
    <defs>
        <filter id="filter0_d_67_181" x="0" y="0" width="380.92" height="380.92"
            filterUnits="userSpaceOnUse" color-interpolation-filters="sRGB">
            <feFlood flood-opacity="0" result="BackgroundImageFix" />
            <feColorMatrix in="SourceAlpha" type="matrix"
                values="0 0 0 0 0 0 0 0 0 0 0 0 0 0 0 0 0 0 127 0" result="hardAlpha" />
            <feOffset dy="4" />
            <feGaussianBlur stdDeviation="2" />
            <feComposite in2="hardAlpha" operator="out" />
            <feColorMatrix type="matrix" values="0 0 0 0 0 0 0 0 0 0 0 0 0 0 0 0 0 0 0.45 0" />
            <feBlend mode="normal" in2="BackgroundImageFix" result="effect1_dropShadow_67_181" />
            <feBlend mode="normal" in="SourceGraphic" in2="effect1_dropShadow_67_181" result="shape" />
        </filter>
    </defs>
</svg>