<svg width="628" height="468" viewBox="0 0 628 468" fill="none" xmlns="http://www.w3.org/2000/svg">
    <path d="M628 411.272H0V411.586H628V411.272Z" fill="#EBEBEB" />
    <path d="M565.076 431.488H537.848V431.802H565.076V431.488Z" fill="#EBEBEB" />
    <path d="M432.901 424.972H390.061V425.286H432.901V424.972Z" fill="#EBEBEB" />
    <path d="M554.035 419.825H498.111V420.139H554.035V419.825Z" fill="#EBEBEB" />
    <path d="M217.308 426.158H203.318V426.472H217.308V426.158Z" fill="#EBEBEB" />
    <path d="M192.135 426.158H143.918V426.472H192.135V426.158Z" fill="#EBEBEB" />
    <path d="M118.066 420.855H83.2812V421.169H118.066V420.855Z" fill="#EBEBEB" />
    <path
        d="M297.69 355.257H55.1575C51.2049 355.257 47.9883 352.04 47.9883 348.088V7.1693C47.9883 3.2166 51.2049 0 55.1575 0H297.69C301.641 0 304.858 3.2166 304.858 7.1693V348.088C304.858 352.04 301.641 355.257 297.69 355.257ZM55.1575 0.3153C51.377 0.3153 48.3023 3.39 48.3023 7.1705V348.089C48.3023 351.869 51.377 354.944 55.1575 354.944H297.69C301.469 354.944 304.544 351.869 304.544 348.089V7.1693C304.544 3.39 301.469 0.314003 297.69 0.314003L55.1575 0.3153Z"
        fill="#EBEBEB" />
    <path
        d="M569.357 355.257H326.826C322.874 355.257 319.658 352.04 319.658 348.088V7.1693C319.658 3.2166 322.875 0 326.826 0H569.357C573.311 0 576.527 3.2166 576.527 7.1693V348.088C576.528 352.04 573.311 355.257 569.357 355.257ZM326.826 0.3153C323.047 0.3153 319.972 3.39 319.972 7.1705V348.089C319.972 351.869 323.047 354.944 326.826 354.944H569.357C573.138 354.944 576.213 351.869 576.213 348.089V7.1693C576.213 3.39 573.138 0.314003 569.357 0.314003L326.826 0.3153Z"
        fill="#EBEBEB" />
    <path
        d="M271.387 183.283L271.952 166.778L261.819 163.467C261.402 157.827 260.459 152.258 259.117 146.893L267.706 140.56L261.872 125.057L251.249 125.912C248.716 120.9 245.741 116.131 242.406 111.657L247.909 102.472L236.595 90.4003L227.097 95.2643C222.819 91.6273 218.31 88.3353 213.483 85.4243L215.022 74.8813L199.952 68.0423L193.048 76.1333C187.788 74.4273 182.338 73.1503 176.7 72.3043L174.133 61.9693L157.584 61.4033L154.316 71.5383C148.632 71.9963 143.107 72.8973 137.743 74.2393L131.365 65.6923L115.863 71.4843L116.72 82.1083C111.706 84.6833 106.938 87.6573 102.464 90.9933L93.3229 85.4922L81.2075 96.7613L86.0695 106.301C82.4359 110.537 79.1414 115.091 76.2714 119.919L65.7311 118.338L58.8495 133.404L66.9833 140.31C65.2777 145.571 63.9551 151.064 63.1538 156.661L52.7742 159.268L52.209 175.773L62.3851 179.088C62.8008 184.769 63.7453 190.296 65.088 195.659L56.5007 201.992L62.3349 217.496L72.9581 216.638C75.4902 221.651 78.4657 226.42 81.8003 230.894L76.2966 240.079L87.6119 252.152L97.1085 247.287C101.344 250.922 105.897 254.218 110.724 257.129L109.141 267.668L124.21 274.507L131.159 266.417C136.419 268.124 141.869 269.4 147.508 270.247L150.075 280.581L166.624 281.148L169.894 271.013C175.576 270.555 181.101 269.654 186.465 268.311L192.799 276.856L208.301 271.065L207.487 260.444C212.502 257.869 217.226 254.891 221.743 251.556L230.885 257.06L242.999 245.79L238.138 236.25C241.772 232.014 245.067 227.46 247.936 222.632L258.477 224.215L265.358 209.146L257.223 202.241C258.93 196.981 260.25 191.532 261.053 185.893L271.387 183.283ZM159.859 236.752C123.714 235.514 95.4104 205.201 96.6488 169.055C97.8884 132.866 128.201 104.564 164.346 105.803C200.491 107.041 228.795 137.351 227.555 173.54C226.317 209.686 196.005 237.99 159.859 236.752Z"
        fill="#EBEBEB" />
    <path
        d="M553.842 128.703L558.005 124.816L556.342 121.538C557.615 120.061 558.743 118.473 559.724 116.838L563.363 117.388L565.72 112.186L562.921 109.804C563.526 107.964 563.963 106.076 564.241 104.172L567.823 103.274L568.008 97.5723L564.506 96.4423C564.349 94.5123 564.052 92.6103 563.585 90.7233L566.532 88.5283L564.525 83.1862L560.868 83.4753C560.002 81.7753 558.984 80.1353 557.816 78.5553L559.71 75.4093L555.813 71.2353L552.544 72.9082C551.045 71.6332 549.479 70.5073 547.844 69.5263L548.373 65.8863L543.18 63.5182L540.799 66.3183C538.949 65.7223 537.061 65.2853 535.156 65.0083L534.268 61.4373L528.565 61.2313L527.425 64.7433C525.506 64.8903 523.593 65.1963 521.715 65.6753L519.531 62.7193L514.179 64.7153L514.478 68.3833C512.779 69.2493 511.117 70.2672 509.557 71.4362L506.391 69.5413L502.228 73.4283L503.901 76.7173C502.618 78.2053 501.5 79.7823 500.519 81.4173L496.88 80.8672L494.522 86.0713L497.321 88.4523C496.716 90.2923 496.279 92.1803 496.001 94.0843L492.419 94.9823L492.234 100.686L495.736 101.815C495.883 103.734 496.19 105.648 496.655 107.535L493.7 109.719L495.707 115.061L499.375 114.782C500.241 116.481 501.259 118.12 502.428 119.703L500.534 122.849L504.431 127.023L507.699 125.349C509.197 126.622 510.764 127.75 512.399 128.731L511.861 132.359L517.053 134.727L519.444 131.939C521.296 132.534 523.173 132.96 525.088 133.247L525.976 136.818L531.678 137.024L532.818 133.513C534.737 133.366 536.65 133.059 538.528 132.581L540.712 135.537L546.065 133.541L545.765 129.874C547.463 129.007 549.115 128.001 550.686 126.822L553.842 128.703ZM524.181 104.675C521.119 101.395 521.294 96.2523 524.574 93.1903C527.857 90.1243 533 90.3003 536.062 93.5803C539.125 96.8603 538.949 102.003 535.666 105.069C532.386 108.131 527.243 107.954 524.181 104.675Z"
        fill="#EBEBEB" />
    <path
        d="M401.906 298.154L388.918 289.184C388.914 289.174 388.914 289.162 388.91 289.152C387.625 284.433 385.853 279.892 383.687 275.623L387.014 262.563L368.174 242.385L354.912 244.813C350.804 242.362 346.397 240.285 341.781 238.681C341.771 238.679 341.759 238.676 341.749 238.671L333.685 225.094L306.097 224.148L297.127 237.136C297.11 237.14 297.093 237.145 297.075 237.149C292.362 238.434 287.824 240.202 283.561 242.366L270.507 239.039L250.331 257.88L252.754 271.116C252.751 271.121 252.749 271.122 252.746 271.127C250.244 275.281 248.214 279.69 246.61 284.308L233.036 292.368L232.09 319.957L245.089 328.935C246.373 333.686 248.09 338.218 250.298 342.522C250.299 342.525 250.299 342.525 250.301 342.527L246.982 355.547L265.822 375.722L279.001 373.311C283.161 375.77 287.575 377.85 292.247 379.456C292.251 379.459 292.254 379.459 292.259 379.459L300.308 393.016L327.896 393.962L336.86 380.982C341.629 379.7 346.174 377.929 350.489 375.76C350.489 375.76 350.492 375.76 350.493 375.757L363.488 379.068L383.664 360.229L381.241 346.991C383.743 342.837 385.773 338.426 387.377 333.808L387.378 333.806L400.958 325.741L401.906 298.154ZM315.93 340.092C298.781 339.504 285.384 325.107 285.97 308.006C286.558 290.857 300.906 277.459 318.056 278.045C335.205 278.633 348.603 292.982 348.016 310.131C347.431 327.232 333.08 340.68 315.93 340.092Z"
        fill="#EBEBEB" />
    <path
        d="M431.498 219.802C431.468 219.802 431.438 219.802 431.408 219.801L409.657 219.056C408.754 219.026 407.929 218.536 407.468 217.76L401.611 207.898C398.498 206.769 395.429 205.344 392.464 203.655L383.035 205.38C382.146 205.548 381.237 205.243 380.62 204.581L365.767 188.676C365.15 188.015 364.912 187.086 365.135 186.21L367.506 176.904C366.065 173.956 364.86 170.807 363.915 167.521L354.456 160.989C353.713 160.476 353.282 159.618 353.312 158.717L354.057 136.967C354.087 136.063 354.577 135.238 355.353 134.777L365.233 128.911C366.405 125.703 367.825 122.649 369.465 119.807L367.733 110.346C367.571 109.458 367.872 108.546 368.532 107.93L384.439 93.0763C385.1 92.4583 386.03 92.2223 386.905 92.4443L396.243 94.8243C399.264 93.3543 402.403 92.1443 405.599 91.2183L412.127 81.7673C412.639 81.0233 413.482 80.5633 414.4 80.6243L436.15 81.3703C437.053 81.4003 437.879 81.8883 438.339 82.6663L444.207 92.5463C447.325 93.6873 450.369 95.1083 453.285 96.7813L462.772 95.0423C463.663 94.8803 464.572 95.1813 465.189 95.8413L480.042 111.75C480.659 112.41 480.896 113.34 480.674 114.215L478.293 123.557C479.764 126.579 480.973 129.717 481.9 132.91L491.351 139.436C492.095 139.948 492.526 140.806 492.496 141.709L491.751 163.461C491.721 164.364 491.231 165.189 490.455 165.65L480.571 171.519C479.399 174.726 477.981 177.778 476.343 180.616L478.076 190.081C478.238 190.969 477.937 191.881 477.277 192.497L461.369 207.348C460.71 207.966 459.782 208.204 458.905 207.979L449.61 205.611C446.546 207.09 443.39 208.3 440.205 209.215L433.683 218.659C433.185 219.375 432.368 219.802 431.498 219.802ZM411.288 213.805L430.139 214.452L436.383 205.411C436.739 204.895 437.269 204.52 437.876 204.357C441.349 203.424 444.794 202.103 448.119 200.431C448.125 200.428 448.13 200.426 448.136 200.422C448.69 200.15 449.336 200.065 449.967 200.23L458.807 202.482L472.594 189.609L470.945 180.599C470.828 179.963 470.949 179.308 471.282 178.752C473.101 175.734 474.643 172.423 475.866 168.913C476.067 168.29 476.493 167.766 477.048 167.44L486.497 161.828L487.143 142.975L478.096 136.727C477.622 136.4 477.268 135.928 477.086 135.384C477.063 135.316 477.043 135.245 477.026 135.172C476.08 131.708 474.763 128.304 473.114 125.055C472.823 124.481 472.751 123.821 472.908 123.198L475.174 114.308L462.3 100.519L453.271 102.172C452.638 102.288 451.986 102.169 451.435 101.84C448.295 99.9663 444.979 98.4173 441.58 97.2353C441.388 97.1693 441.193 97.0803 441.026 96.9783C440.659 96.7523 440.354 96.4423 440.136 96.0723L434.519 86.6163L415.667 85.9693L409.419 95.0173C409.047 95.5563 408.491 95.9363 407.858 96.0873C404.37 97.0433 400.977 98.3553 397.742 99.9963C397.168 100.288 396.507 100.36 395.887 100.201L387 97.9353L373.213 110.81L374.862 119.82C374.967 120.385 374.883 120.969 374.626 121.483C374.59 121.555 374.55 121.626 374.507 121.696C372.685 124.726 371.14 128.046 369.918 131.567C369.712 132.157 369.305 132.657 368.767 132.976L359.312 138.592L358.666 157.443L367.722 163.698C368.238 164.053 368.611 164.582 368.776 165.188C369.752 168.8 371.066 172.23 372.682 175.383C372.775 175.563 372.848 175.754 372.897 175.953C373.004 176.379 373.002 176.824 372.894 177.25L370.636 186.11L383.51 199.896L392.475 198.256C393.105 198.141 393.753 198.258 394.302 198.582C397.498 200.472 400.83 202.02 404.209 203.185C404.819 203.379 405.348 203.792 405.683 204.358L411.288 213.805ZM422.932 189.985C422.467 189.985 422.004 189.976 421.537 189.96C399.625 189.209 382.409 170.772 383.16 148.86C383.911 126.949 402.378 109.738 424.26 110.481C446.172 111.232 463.388 129.669 462.637 151.583C462.274 162.183 457.801 172.016 450.044 179.267C442.62 186.208 433.038 189.985 422.932 189.985ZM422.884 115.763C404.424 115.763 389.098 130.452 388.461 149.042C387.811 168.03 402.729 184.007 421.719 184.658C430.92 184.966 439.693 181.684 446.423 175.393C453.146 169.108 457.022 160.587 457.336 151.4C457.987 132.412 443.067 116.433 424.079 115.783C423.679 115.77 423.28 115.763 422.884 115.763Z"
        fill="#EBEBEB" />
    <path
        d="M481.6 63.2663L472.589 60.8473L470.17 51.8373L473.698 48.3093L477.42 56.0163L485.126 59.7393L481.6 63.2663Z"
        fill="#E0E0E0" />
    <path
        d="M482.159 57.2343C483.8 55.5933 483.8 52.9183 482.159 51.2763C480.517 49.6343 477.854 49.6473 476.213 51.2883L480.694 44.5653L486.706 47.6033L488.023 53.9203L482.159 57.2343Z"
        fill="#E0E0E0" />
    <path
        d="M472.986 49.0203L479.589 42.4173L488.598 44.8363L491.019 53.8473L484.416 60.4503L475.405 58.0293L472.986 49.0203ZM484.975 54.4183C486.616 52.7773 486.616 50.1023 484.975 48.4603C483.333 46.8183 480.671 46.8313 479.029 48.4733C477.387 50.1143 477.387 52.7663 479.029 54.4063C480.671 56.0473 483.333 56.0603 484.975 54.4183Z"
        fill="#F0F0F0" />
    <path
        d="M113.319 303.645L118.153 302.347L119.452 297.512L117.559 295.619L115.562 299.755L111.426 301.752L113.319 303.645Z"
        fill="#E0E0E0" />
    <path
        d="M113.017 300.409C112.136 299.528 112.136 298.092 113.017 297.211C113.897 296.33 115.326 296.337 116.207 297.217L113.802 293.609L110.576 295.239L109.869 298.628L113.017 300.409Z"
        fill="#E0E0E0" />
    <path
        d="M117.94 296.001L114.397 292.458L109.562 293.757L108.264 298.592L111.807 302.136L116.641 300.837L117.94 296.001ZM111.505 298.898C110.625 298.017 110.625 296.581 111.505 295.7C112.386 294.819 113.815 294.826 114.696 295.706C115.576 296.587 115.576 298.01 114.696 298.89C113.816 299.772 112.387 299.778 111.505 298.898Z"
        fill="#F0F0F0" />
    <path
        d="M95.9127 38.5713L99.9256 42.5843C100.971 43.6293 102.68 43.6293 103.725 42.5843C104.77 41.5393 104.77 39.8303 103.725 38.7853L99.7121 34.7723C98.6671 33.7273 96.9576 33.7273 95.9127 34.7723C94.8677 35.8173 94.8677 37.5283 95.9127 38.5713Z"
        fill="#F0F0F0" />
    <path
        d="M93.0852 28.5778C96.1775 27.4675 99.5297 28.9194 100.572 31.8223C101.615 34.7243 99.953 37.9773 96.8607 39.0893C93.7685 40.1993 90.4162 38.7473 89.3737 35.8453C88.3312 32.9423 89.9929 29.6893 93.0852 28.5778Z"
        fill="#E0E0E0" />
    <path d="M88.7134 35.1753L89.295 36.7943L101.236 32.5063L100.654 30.8866L88.7134 35.1753Z"
        fill="#F0F0F0" />
    <path
        d="M313.999 467.997C448.494 467.997 557.524 461.629 557.524 453.775C557.524 445.921 448.494 439.553 313.999 439.553C179.504 439.553 70.4746 445.921 70.4746 453.775C70.4746 461.629 179.504 467.997 313.999 467.997Z"
        fill="#F5F5F5" />
    <path
        d="M161.622 146.486C161.547 146.486 161.47 146.472 161.395 146.443C155.742 144.254 152.359 142.115 150.603 139.545C149.327 139.801 147.899 139.632 146.544 138.987C145.228 138.362 143.961 137.268 143.051 135.694C142.203 136.349 141.156 136.527 140.005 136.165C138.729 135.765 137.402 134.689 136.298 133.137C135.596 133.644 134.876 133.721 134.348 133.677C130.614 133.373 125.555 125.94 125.192 118.019C125.176 117.673 125.445 117.378 125.791 117.364C126.13 117.335 126.432 117.615 126.447 117.963C126.791 125.48 131.608 132.195 134.451 132.426C134.912 132.471 135.298 132.327 135.622 132.076C133.916 129.083 133.031 124.815 134.337 120.254C135.417 116.48 136.372 115.004 137.517 115.278C139.681 115.817 139.397 124.035 138.251 129.456C137.991 130.685 137.616 131.567 137.189 132.197C138.18 133.661 139.355 134.645 140.383 134.969C141.303 135.258 141.984 135.013 142.486 134.535C141.499 132.103 141.294 128.79 142.634 124.564C144.398 119.001 145.107 118.85 145.532 118.761C145.831 118.697 146.13 118.796 146.342 119.037C147.502 120.347 146.116 128.987 144.654 133.26C144.464 133.815 144.228 134.301 143.954 134.713C144.734 136.242 145.883 137.283 147.085 137.855C148.05 138.313 149.04 138.48 149.94 138.396C149.827 138.158 149.726 137.917 149.634 137.672C148.638 134.976 149.125 131.862 151.122 128.154C152.447 125.695 153.527 124.548 154.522 124.547C154.817 124.547 155.371 124.656 155.762 125.379C156.857 127.4 156.065 134.069 153.899 137.378C153.389 138.158 152.685 138.75 151.867 139.134C153.55 141.347 156.745 143.297 161.851 145.276C162.174 145.402 162.335 145.765 162.21 146.088C162.112 146.334 161.874 146.486 161.622 146.486ZM154.521 125.799C154.517 125.799 153.811 125.804 152.226 128.747C150.41 132.12 149.947 134.895 150.811 137.234C150.916 137.52 151.042 137.799 151.188 138.076C151.858 137.788 152.432 137.321 152.847 136.689C154.605 134 155.448 128.477 154.794 126.318C154.659 125.876 154.521 125.799 154.521 125.799ZM145.513 120.508C145.189 121.117 144.644 122.372 143.83 124.94C142.752 128.342 142.746 131.075 143.346 133.165C143.388 133.059 143.427 132.954 143.463 132.849C144.94 128.531 145.66 122.583 145.513 120.508ZM137.241 116.551C137.029 116.746 136.418 117.537 135.543 120.597C134.389 124.633 135.099 128.314 136.456 130.954C136.716 130.409 136.897 129.781 137.021 129.193C138.324 123.025 137.944 117.445 137.241 116.551Z"
        fill="#263238" />
    <path
        d="M209.373 212.32C207.457 212.32 205.443 211.883 203.644 210.827C203.345 210.65 203.245 210.267 203.421 209.966C203.595 209.666 203.981 209.57 204.28 209.742C208.76 212.373 214.551 210.537 215.743 208.62C215.881 208.395 216.008 208.11 215.928 207.777C214.156 207.964 211.975 207.495 209.483 205.936C206.287 203.938 206.041 203.344 206.061 202.869C206.073 202.587 206.233 202.343 206.489 202.212C207.74 201.578 213.403 204.189 215.765 205.741C216.074 205.945 216.335 206.165 216.546 206.397C217.59 206.143 218.398 205.603 218.936 204.959C219.305 204.515 219.551 204.033 219.673 203.55C219.59 203.562 219.506 203.572 219.422 203.58C217.414 203.782 215.399 202.92 213.254 200.937C211.779 199.574 211.207 198.635 211.397 197.89C211.458 197.653 211.656 197.231 212.301 197.07C214.038 196.638 218.326 198.465 220.079 200.388C220.473 200.82 220.742 201.329 220.885 201.875C222.524 201.105 224.258 199.378 226.31 196.511C226.512 196.228 226.904 196.164 227.187 196.367C227.469 196.567 227.533 196.961 227.332 197.242C224.96 200.558 222.982 202.437 220.995 203.203C220.917 204.087 220.551 204.986 219.903 205.765C219.266 206.528 218.338 207.183 217.164 207.537C217.289 208.103 217.176 208.7 216.812 209.286C215.751 210.99 212.714 212.32 209.373 212.32ZM208.257 203.609C208.679 203.92 209.285 204.332 210.149 204.873C211.853 205.94 213.372 206.431 214.671 206.534C212.589 205.244 209.868 204.102 208.257 203.609ZM212.641 198.273C212.711 198.469 212.99 198.985 214.105 200.016C215.972 201.742 217.67 202.51 219.294 202.333C219.427 202.319 219.561 202.3 219.696 202.272C219.607 201.89 219.425 201.537 219.151 201.236C217.384 199.298 213.499 198.071 212.641 198.273Z"
        fill="#263238" />
    <path
        d="M226.007 210.597L206.436 214.151L188.668 117.173L150.907 124.032L89.377 233.303L95.9835 269.36L174.907 255.024L180.31 284.516L218.07 277.657L212.667 248.166L232.238 244.611L226.007 210.597ZM126.974 228.587L159.579 171.355L168.677 221.012L126.974 228.587Z"
        fill="#4ABDAC" />
    <path
        d="M383.62 110.578C382.889 103.878 381.552 97.9263 379.605 92.7203C377.66 87.5143 374.732 82.4113 370.826 77.4113C366.919 72.4113 361.6 68.0703 354.869 64.3913C348.137 60.7133 339.252 58.1533 328.213 56.7143C305.239 53.7213 287.329 57.8013 274.479 68.9483C261.628 80.0973 253.174 101.454 249.11 133.018C247.458 145.855 247.048 157.722 247.883 168.619C248.716 179.515 250.716 188.279 253.884 194.911C258.219 204.229 264.353 211.671 272.284 217.232C280.213 222.795 291.076 226.477 304.877 228.274C329.491 231.481 347.73 226.757 359.599 214.097C371.466 201.441 379.34 180.045 383.219 149.915C384.951 136.472 385.084 123.36 383.62 110.578Z"
        fill="#4ABDAC" />
    <path
        d="M316.218 215.38C313.198 215.277 309.984 215.004 306.664 214.571C295.167 213.074 286.27 210.164 280.221 205.92C274.253 201.735 269.738 196.228 266.416 189.082L266.354 188.952C263.939 183.899 262.361 176.703 261.663 167.565C260.903 157.658 261.291 146.629 262.816 134.781C267.298 99.9633 276.558 85.4373 283.536 79.3833C291.672 72.3243 302.654 69.1343 317.109 69.6293C320.071 69.7303 323.207 69.9953 326.43 70.4153C335.707 71.6233 343.047 73.6753 348.246 76.5153C353.282 79.2673 357.217 82.4313 359.94 85.9163C362.959 89.7803 365.221 93.6973 366.664 97.5583C368.2 101.665 369.284 106.55 369.887 112.075C371.225 123.767 371.098 135.88 369.519 148.15C366.036 175.203 359.309 194.211 349.524 204.646C342.265 212.389 331.372 215.901 316.222 215.381C316.22 215.38 316.218 215.38 316.218 215.38Z"
        fill="#263238" />
    <path
        d="M340.798 110.948L340.961 106.191L338.041 105.236C337.92 103.611 337.649 102.006 337.262 100.458L339.738 98.6333L338.056 94.1653L334.994 94.4113C334.264 92.9663 333.406 91.5913 332.446 90.3013L334.032 87.6533L330.77 84.1743L328.032 85.5763C326.799 84.5293 325.499 83.5793 324.107 82.7403L324.55 79.7003L320.207 77.7293L318.218 80.0613C316.702 79.5693 315.13 79.2013 313.505 78.9573L312.765 75.9783L307.995 75.8143L307.053 78.7363C305.414 78.8683 303.823 79.1283 302.276 79.5153L300.438 77.0523L295.969 78.7213L296.216 81.7833C294.771 82.5253 293.396 83.3823 292.107 84.3443L289.471 82.7593L285.98 86.0073L287.381 88.7563C286.334 89.9773 285.384 91.2903 284.557 92.6813L281.518 92.2253L279.535 96.5693L281.88 98.5593C281.388 100.077 281.007 101.659 280.776 103.272L277.784 104.023L277.621 108.781L280.554 109.736C280.673 111.374 280.946 112.967 281.333 114.513L278.857 116.338L280.539 120.807L283.601 120.559C284.331 122.004 285.189 123.379 286.149 124.669L284.563 127.317L287.825 130.797L290.562 129.395C291.783 130.443 293.095 131.392 294.485 132.233L294.029 135.271L298.373 137.243L300.376 134.91C301.892 135.403 303.463 135.771 305.089 136.014L305.828 138.994L310.599 139.157L311.541 136.236C313.178 136.104 314.771 135.844 316.317 135.457L318.143 137.92L322.612 136.251L322.377 133.188C323.823 132.446 325.185 131.588 326.487 130.626L329.122 132.213L332.614 128.963L331.212 126.214C332.26 124.993 333.209 123.681 334.036 122.289L337.074 122.745L339.057 118.402L336.712 116.411C337.204 114.895 337.585 113.324 337.816 111.698L340.798 110.948ZM308.651 126.361C298.232 126.004 290.073 117.266 290.43 106.848C290.788 96.4173 299.524 88.2593 309.943 88.6163C320.362 88.9723 328.521 97.7093 328.163 108.14C327.807 118.559 319.069 126.718 308.651 126.361Z"
        fill="#4ABDAC" />
    <path
        d="M360.625 198.338L360.97 195.132L359.042 194.346C359.036 193.243 358.94 192.151 358.757 191.088L360.515 189.971L359.622 186.869L357.535 186.885C357.114 185.871 356.618 184.898 356.033 183.982L357.223 182.274L355.208 179.765L353.285 180.566C352.517 179.805 351.688 179.1 350.784 178.467L351.251 176.425L348.424 174.874L346.947 176.366C345.933 175.934 344.886 175.619 343.836 175.378L343.48 173.323L340.274 172.963L339.487 174.891C338.385 174.898 337.308 175.008 336.229 175.192L335.114 173.418L332.01 174.326L332.027 176.414C331.027 176.836 330.055 177.332 329.124 177.917L327.416 176.711L324.908 178.727L325.709 180.65C324.962 181.419 324.243 182.247 323.609 183.151L321.581 182.699L320.03 185.526L321.508 186.988C321.091 188.018 320.762 189.05 320.519 190.114L318.465 190.455L318.119 193.661L320.046 194.462C320.038 195.55 320.148 196.642 320.332 197.707L318.56 198.822L319.468 201.926L321.556 201.923C321.978 202.923 322.472 203.895 323.059 204.812L321.854 206.52L323.87 209.043L325.81 208.228C326.577 208.989 327.405 209.694 328.31 210.328L327.843 212.37L330.67 213.923L332.146 212.445C333.161 212.862 334.208 213.177 335.259 213.418L335.614 215.473L338.821 215.832L339.607 213.904C340.694 213.898 341.786 213.788 342.865 213.605L343.98 215.377L347.069 214.469L347.067 212.382C348.067 211.96 349.039 211.465 349.97 210.88L351.663 212.084L354.186 210.069L353.37 208.145C354.131 207.378 354.836 206.549 355.484 205.646L357.511 206.097L359.062 203.269L357.584 201.808C358.001 200.779 358.316 199.745 358.557 198.695L360.625 198.338ZM344.456 197.094C342.967 199.805 339.552 200.806 336.84 199.317C334.128 197.827 333.142 194.413 334.632 191.702C336.121 188.99 339.52 188.004 342.233 189.492C344.945 190.982 345.945 194.382 344.456 197.094Z"
        fill="#4ABDAC" />
    <path
        d="M378.422 144.059L374.677 141.473C374.676 141.471 374.676 141.467 374.675 141.464C374.304 140.104 373.793 138.795 373.169 137.564L374.129 133.8L368.698 127.984L364.876 128.683C363.692 127.976 362.421 127.378 361.091 126.916C361.089 126.915 361.085 126.915 361.081 126.913L358.758 123L350.806 122.727L348.22 126.471C348.215 126.473 348.21 126.474 348.205 126.475C346.846 126.846 345.538 127.356 344.309 127.979L340.546 127.019L334.73 132.45L335.429 136.266C335.427 136.267 335.426 136.269 335.426 136.269C334.705 137.466 334.12 138.737 333.658 140.069L329.745 142.392L329.473 150.344L333.219 152.932C333.589 154.301 334.085 155.607 334.72 156.848V156.849L333.764 160.602L339.194 166.417L342.994 165.723C344.192 166.431 345.464 167.031 346.812 167.494C346.812 167.494 346.814 167.495 346.816 167.495L349.135 171.402L357.087 171.675L359.671 167.933C361.045 167.564 362.355 167.053 363.599 166.427L363.601 166.426L367.346 167.381L373.161 161.951L372.463 158.135C373.184 156.938 373.769 155.666 374.231 154.336L378.145 152.01L378.422 144.059ZM353.639 156.148C348.696 155.979 344.835 151.829 345.003 146.9C345.173 141.957 349.309 138.096 354.251 138.264C359.195 138.434 363.056 142.57 362.887 147.512C362.719 152.44 358.582 156.318 353.639 156.148Z"
        fill="white" />
    <path
        d="M405.743 80.6003L406.397 79.0213C406.399 79.0213 406.4 79.0203 406.401 79.0203C406.871 78.7773 407.312 78.4863 407.715 78.1593L409.173 78.2153L410.881 75.7633L410.324 74.4143C410.489 73.9243 410.61 73.4103 410.674 72.8853C410.674 72.8843 410.674 72.8833 410.674 72.8823L411.928 71.7203L411.401 68.7783L409.822 68.1243C409.821 68.1233 409.821 68.1203 409.82 68.1193C409.578 67.6493 409.287 67.2103 408.961 66.8063L409.016 65.3493L406.564 63.6413L405.218 64.1983C404.722 64.0273 404.208 63.9133 403.683 63.8473L402.521 62.5943L399.58 63.1203L398.924 64.7003C398.451 64.9443 398.01 65.2293 397.604 65.5603L396.151 65.5053L394.444 67.9573L394.998 69.2973C394.832 69.7933 394.711 70.3073 394.649 70.8383L393.396 71.9993L393.923 74.9403L395.5 75.5953C395.744 76.0713 396.035 76.5113 396.363 76.9183L396.308 78.3693L398.76 80.0773L400.106 79.5203C400.602 79.6903 401.116 79.8053 401.641 79.8703L402.803 81.1253L405.743 80.6003ZM399.351 72.4523C399.025 70.6233 400.244 68.8793 402.067 68.5523C403.895 68.2263 405.639 69.4393 405.967 71.2683C406.294 73.0963 405.079 74.8403 403.251 75.1683C401.429 75.4943 399.679 74.2813 399.351 72.4523Z"
        fill="#4ABDAC" />
    <path
        d="M371.282 72.2663L370.322 71.4563C371.99 69.4823 374.355 66.9803 377.868 65.1403L378.451 66.2543C374.706 68.2143 372.307 71.0543 371.282 72.2663Z"
        fill="#4ABDAC" />
    <path
        d="M381.311 65.1233L380.814 63.9683C385.566 61.9333 390.53 61.1393 395.559 61.6073L395.442 62.8573C390.619 62.3983 385.866 63.1693 381.311 65.1233Z"
        fill="#4ABDAC" />
    <path
        d="M378.94 73.8123L377.902 73.1053C380.482 69.3163 385.58 66.0163 390.3 65.0813L390.544 66.3113C386.12 67.1913 381.349 70.2743 378.94 73.8123Z"
        fill="#4ABDAC" />
    <path
        d="M295.592 194.686C295.424 194.686 295.26 194.618 295.141 194.495L292.507 191.781C291.166 191.654 289.839 191.408 288.556 191.045L284.451 192.855C284.257 192.944 284.03 192.921 283.851 192.804L276.974 188.245C276.796 188.126 276.69 187.926 276.693 187.711L276.761 183.236C275.925 182.196 275.181 181.067 274.543 179.874L271.02 178.507C270.82 178.43 270.674 178.258 270.63 178.048L268.991 169.962C268.948 169.752 269.016 169.535 269.169 169.385L271.884 166.753C272.009 165.417 272.255 164.09 272.617 162.797L270.81 158.698C270.723 158.502 270.743 158.276 270.86 158.096L275.418 151.218C275.536 151.04 275.704 150.929 275.952 150.937L280.424 151.006C281.474 150.167 282.605 149.422 283.789 148.789L285.156 145.264C285.234 145.064 285.407 144.918 285.617 144.874L293.703 143.234C293.913 143.194 294.13 143.259 294.278 143.412L296.908 146.124C298.245 146.25 299.573 146.497 300.868 146.859L304.967 145.051C305.161 144.966 305.387 144.985 305.567 145.103L312.444 149.661C312.622 149.78 312.727 149.98 312.725 150.195L312.657 154.672C313.494 155.714 314.237 156.843 314.873 158.032L318.398 159.4C318.598 159.478 318.744 159.65 318.788 159.86L320.427 167.946C320.469 168.156 320.402 168.373 320.248 168.522L317.533 171.156C317.409 172.476 317.162 173.801 316.798 175.104L318.608 179.21C318.695 179.405 318.675 179.633 318.558 179.811L314.001 186.69C313.883 186.869 313.695 186.958 313.469 186.972L308.993 186.904C307.951 187.735 306.822 188.478 305.634 189.113L304.263 192.646C304.187 192.846 304.012 192.992 303.802 193.036L295.716 194.676C295.675 194.682 295.633 194.686 295.592 194.686ZM288.512 189.75C288.571 189.75 288.631 189.759 288.689 189.776C290.034 190.171 291.432 190.432 292.848 190.55C293 190.563 293.14 190.629 293.246 190.738L295.803 193.375L303.216 191.871L304.547 188.44C304.602 188.298 304.708 188.18 304.842 188.11C306.102 187.453 307.292 186.671 308.378 185.785C308.492 185.692 308.622 185.628 308.784 185.644L313.143 185.711L317.322 179.405L315.559 175.406C315.5 175.272 315.489 175.119 315.531 174.977C315.928 173.607 316.188 172.207 316.305 170.818C316.317 170.666 316.384 170.526 316.493 170.419L319.129 167.862L317.627 160.45L314.202 159.121C314.056 159.065 313.937 158.957 313.867 158.817C313.214 157.561 312.431 156.377 311.542 155.293C311.448 155.177 311.396 155.033 311.399 154.885L311.465 150.521L305.16 146.343L301.171 148.101C301.035 148.16 300.885 148.17 300.743 148.13C299.381 147.734 297.977 147.473 296.569 147.356C296.417 147.344 296.276 147.276 296.171 147.169L293.617 144.535L286.205 146.039L284.877 149.464C284.822 149.606 284.716 149.724 284.581 149.794C283.33 150.446 282.139 151.23 281.044 152.123C280.929 152.216 280.776 152.282 280.635 152.266L276.277 152.198L272.098 158.503L273.859 162.496C273.935 162.668 273.93 162.864 273.847 163.031C273.493 164.286 273.233 165.686 273.115 167.092C273.102 167.242 273.035 167.383 272.926 167.49L270.291 170.046L271.793 177.457L275.217 178.785C275.37 178.844 275.493 178.961 275.56 179.108C276.211 180.354 276.992 181.537 277.876 182.613C277.97 182.729 278.023 182.876 278.02 183.024L277.954 187.385L284.259 191.565L288.258 189.801C288.338 189.769 288.425 189.75 288.512 189.75ZM294.689 185.687C291.514 185.687 288.306 184.787 285.466 182.906C281.741 180.437 279.199 176.664 278.308 172.284C277.418 167.903 278.288 163.438 280.757 159.711H280.759C285.864 152.018 296.273 149.906 303.961 155.001C311.65 160.105 313.76 170.513 308.663 178.205C305.446 183.057 300.116 185.687 294.689 185.687ZM281.805 160.406C279.521 163.851 278.716 167.981 279.54 172.034C280.363 176.086 282.714 179.575 286.161 181.858C293.278 186.573 302.902 184.623 307.614 177.51C312.329 170.396 310.379 160.768 303.266 156.049C296.155 151.335 286.527 153.289 281.805 160.406Z"
        fill="white" />
    <path
        d="M534.838 221.932L515.125 219.272L528.162 121.545L490.129 116.413L397.872 201.352L393.025 237.686L472.52 248.415L468.556 278.135L506.589 283.267L510.553 253.547L530.266 256.207L534.838 221.932ZM435.089 208.471L483.769 164.099L477.093 214.139L435.089 208.471Z"
        fill="#4ABDAC" />
    <path
        d="M495.033 282.335C494.995 282.335 494.957 282.331 494.92 282.325C494.579 282.262 494.352 281.935 494.415 281.594L523.712 120.914C523.774 120.574 524.104 120.361 524.442 120.409C524.784 120.471 525.01 120.799 524.947 121.14L495.649 281.82C495.594 282.122 495.33 282.335 495.033 282.335Z"
        fill="#263238" />
    <path
        d="M521.029 123.613C521.009 124.18 520.533 124.625 519.965 124.606C519.397 124.586 518.952 124.11 518.971 123.542C518.99 122.975 519.467 122.53 520.035 122.549C520.604 122.568 521.049 123.044 521.029 123.613Z"
        fill="#263238" />
    <path
        d="M516.843 145.343C516.823 145.91 516.347 146.355 515.779 146.336C515.212 146.317 514.767 145.84 514.786 145.272C514.805 144.705 515.282 144.26 515.85 144.279C516.417 144.298 516.862 144.774 516.843 145.343Z"
        fill="#263238" />
    <path
        d="M512.657 167.072C512.637 167.639 512.161 168.084 511.594 168.065C511.026 168.046 510.581 167.569 510.6 167.001C510.619 166.434 511.096 165.989 511.664 166.008C512.233 166.028 512.678 166.504 512.657 167.072Z"
        fill="#263238" />
    <path
        d="M504.427 189.693C504.407 190.261 503.931 190.706 503.363 190.687C502.795 190.667 502.351 190.191 502.37 189.623C502.389 189.055 502.866 188.611 503.434 188.63C504.001 188.648 504.447 189.124 504.427 189.693Z"
        fill="#263238" />
    <path
        d="M504.286 210.532C504.266 211.099 503.79 211.544 503.223 211.525C502.655 211.505 502.21 211.029 502.229 210.461C502.248 209.894 502.725 209.449 503.293 209.468C503.862 209.487 504.307 209.964 504.286 210.532Z"
        fill="#263238" />
    <path
        d="M500.101 232.262C500.081 232.829 499.605 233.274 499.037 233.255C498.469 233.236 498.025 232.759 498.044 232.191C498.062 231.624 498.54 231.179 499.107 231.198C499.675 231.217 500.12 231.693 500.101 232.262Z"
        fill="#263238" />
    <path
        d="M495.915 253.992C495.895 254.559 495.419 255.004 494.852 254.985C494.284 254.965 493.839 254.489 493.858 253.921C493.878 253.354 494.354 252.909 494.922 252.928C495.491 252.947 495.935 253.423 495.915 253.992Z"
        fill="#263238" />
    <path
        d="M491.73 275.721C491.71 276.288 491.234 276.733 490.666 276.714C490.098 276.695 489.654 276.218 489.672 275.65C489.691 275.083 490.169 274.638 490.736 274.657C491.304 274.676 491.749 275.153 491.73 275.721Z"
        fill="#263238" />
    <path
        d="M503.399 190.286C503.11 190.286 502.848 190.085 502.786 189.789C502.713 189.45 502.929 189.117 503.268 189.043L506.388 188.373C506.732 188.306 507.061 188.515 507.134 188.857C507.207 189.196 506.991 189.529 506.652 189.603L503.532 190.272C503.486 190.281 503.443 190.286 503.399 190.286Z"
        fill="#263238" />
    <path
        d="M513.813 178.715C513.813 178.715 511.002 186.036 510.056 190.472C509.11 194.908 509.053 204.821 509.053 204.821"
        fill="#263238" />
    <path
        d="M509.052 205.449H509.048C508.701 205.446 508.421 205.164 508.424 204.817C508.426 204.41 508.492 194.789 509.441 190.34C510.387 185.908 513.11 178.791 513.226 178.489C513.35 178.166 513.712 178.005 514.037 178.128C514.361 178.252 514.523 178.617 514.399 178.94C514.371 179.014 511.595 186.267 510.67 190.603C509.748 194.926 509.681 204.726 509.68 204.824C509.677 205.171 509.397 205.449 509.052 205.449Z"
        fill="#263238" />
    <path
        d="M279.4 313.86C281.145 285.722 277.936 234.573 330.826 241.344C387.516 248.601 371.297 314.89 371.297 314.89L279.4 313.86Z"
        fill="#263238" />
    <path
        d="M315.903 296.947C328.649 296.947 338.982 286.614 338.982 273.868C338.982 261.122 328.649 250.789 315.903 250.789C303.157 250.789 292.824 261.122 292.824 273.868C292.824 286.614 303.157 296.947 315.903 296.947Z"
        fill="white" />
    <path
        d="M318.932 250.825C308 248.959 296.312 257.018 295.16 265.182L338.501 269.167C336.974 259.86 327.606 252.306 318.932 250.825Z"
        fill="#263238" />
    <path
        d="M333.565 273.294C333.254 279.328 329.966 284.063 326.22 283.871C322.473 283.679 319.687 278.631 319.996 272.597C320.306 266.563 323.595 261.828 327.341 262.02C331.088 262.212 333.875 267.26 333.565 273.294Z"
        fill="#263238" />
    <path
        d="M315.903 298.203C302.484 298.203 291.566 287.287 291.566 273.868C291.566 260.449 302.484 249.533 315.903 249.533C329.322 249.533 340.238 260.449 340.238 273.868C340.238 287.287 329.321 298.203 315.903 298.203ZM315.903 252.045C303.869 252.045 294.078 261.834 294.078 273.868C294.078 285.902 303.868 295.691 315.903 295.691C327.936 295.691 337.726 285.902 337.726 273.868C337.726 261.834 327.935 252.045 315.903 252.045Z"
        fill="#4ABDAC" />
    <path
        d="M364.85 313.152C364.801 313.152 364.752 313.146 364.702 313.134C364.365 313.053 364.157 312.714 364.238 312.376C364.28 312.206 368.281 295.176 364.125 277.958C364.044 277.621 364.251 277.282 364.589 277.199C364.922 277.124 365.264 277.324 365.346 277.662C369.576 295.184 365.502 312.496 365.459 312.67C365.39 312.96 365.134 313.152 364.85 313.152Z"
        fill="white" />
    <path
        d="M361.349 268.541C361.11 268.541 360.883 268.406 360.777 268.175C359.162 264.65 357.159 261.415 354.822 258.557C354.602 258.289 354.642 257.894 354.911 257.674C355.178 257.453 355.574 257.492 355.795 257.762C358.199 260.703 360.26 264.03 361.919 267.652C362.064 267.967 361.925 268.34 361.61 268.484C361.525 268.522 361.437 268.541 361.349 268.541Z"
        fill="white" />
    <path
        d="M161.692 445.837C161.536 445.837 161.381 445.836 161.225 445.831C157.758 445.735 155.025 442.848 155.12 439.38C155.214 435.913 158.07 433.232 161.569 433.276C161.608 433.277 161.648 433.277 161.69 433.277C165.318 433.277 174.047 428.868 192.308 400.081C193.289 398.536 194.897 397.494 196.708 397.23C198.523 396.972 200.357 397.51 201.739 398.712C224.272 418.36 248.153 430.589 248.391 430.711C251.482 432.281 252.717 436.062 251.147 439.153C249.577 442.245 245.799 443.482 242.708 441.911C241.76 441.43 220.886 430.757 199.002 412.839C183.696 435.848 172.338 445.837 161.692 445.837Z"
        fill="#263238" />
    <path
        d="M200.545 397.584C200.367 397.584 200.188 397.571 200.008 397.546C197.948 397.252 196.516 395.343 196.811 393.282C197.704 387.031 196.598 363.608 188.678 345.396C187.956 343.737 188.516 341.799 190.012 340.779C207.217 329.054 243.865 327.652 245.417 327.598C247.486 327.553 249.24 329.153 249.313 331.233C249.386 333.312 247.758 335.058 245.68 335.129C245.34 335.142 213.3 336.37 196.836 345.431C203.85 363.565 205.44 386.172 204.27 394.349C204.002 396.229 202.39 397.584 200.545 397.584Z"
        fill="#263238" />
    <path
        d="M206.876 392.706C204.37 386.795 193.075 387.467 186.443 392.532C182.899 395.239 178.102 403.385 177.597 406.337C177.094 409.29 179.138 411.964 182.65 411.66C186.981 411.286 192.925 404.992 192.925 404.992C188.97 408.87 194.073 411.607 201.689 405.998C205.914 402.887 209.682 399.325 206.876 392.706Z"
        fill="#4ABDAC" />
    <path
        d="M422.903 315.518C422.847 315.518 422.788 315.511 422.73 315.493C422.397 315.398 422.204 315.048 422.3 314.717C423.973 308.889 425.801 305.328 428.203 303.349C427.835 302.098 427.877 300.661 428.396 299.256C428.901 297.888 429.877 296.529 431.362 295.481C430.635 294.695 430.364 293.666 430.621 292.489C430.906 291.182 431.857 289.764 433.304 288.526C432.735 287.871 432.596 287.159 432.592 286.631C432.561 282.886 439.509 277.18 447.365 276.107C447.709 276.043 448.026 276.3 448.072 276.645C448.119 276.988 447.879 277.304 447.535 277.352C440.076 278.371 433.823 283.769 433.848 286.621C433.852 287.084 434.023 287.455 434.303 287.756C437.13 285.787 441.304 284.521 445.961 285.416C449.815 286.153 451.383 286.967 451.202 288.137C450.86 290.339 442.65 290.794 437.147 290.139C435.9 289.991 434.987 289.696 434.321 289.328C432.954 290.447 432.077 291.703 431.848 292.757C431.644 293.698 431.948 294.353 432.47 294.812C434.801 293.61 438.083 293.107 442.413 294.064C448.111 295.322 448.323 296.016 448.451 296.43C448.542 296.725 448.469 297.029 448.249 297.261C447.049 298.533 438.319 297.929 433.933 296.855C433.362 296.716 432.858 296.525 432.422 296.289C430.969 297.204 430.035 298.44 429.574 299.69C429.205 300.692 429.12 301.691 429.29 302.583C429.516 302.448 429.747 302.325 429.983 302.212C432.582 300.979 435.724 301.186 439.597 302.841C442.165 303.942 443.404 304.914 443.494 305.905C443.522 306.197 443.464 306.759 442.778 307.214C440.863 308.486 434.149 308.292 430.66 306.435C429.838 305.995 429.186 305.348 428.729 304.568C426.675 306.444 425.02 309.801 423.509 315.062C423.427 315.34 423.176 315.518 422.903 315.518ZM429.717 303.798C430.064 304.442 430.58 304.972 431.248 305.327C434.083 306.835 439.658 307.181 441.751 306.337C442.178 306.164 442.242 306.019 442.242 306.019C442.242 306.015 442.173 305.312 439.101 303.998C435.58 302.492 432.773 302.281 430.521 303.348C430.247 303.478 429.978 303.628 429.717 303.798ZM433.904 295.549C434.012 295.58 434.122 295.611 434.229 295.637C438.663 296.722 444.651 296.908 446.704 296.57C446.069 296.301 444.77 295.872 442.139 295.292C438.656 294.524 435.933 294.764 433.904 295.549ZM435.49 288.488C436.056 288.699 436.697 288.823 437.294 288.894C443.553 289.635 449.078 288.759 449.905 287.979C449.691 287.786 448.848 287.248 445.723 286.65C441.6 285.865 437.998 286.899 435.49 288.488Z"
        fill="#263238" />
    <path
        d="M259.399 443.739C260.227 443.474 259.949 442.676 259.026 442.676H242.021C209.64 439.247 187.016 443.842 201.272 444.926C215.528 446.01 200.269 445.783 189.858 449.721C179.447 453.659 267.295 454.652 275.285 449.721C282.652 445.173 247.925 447.417 259.399 443.739Z"
        fill="#263238" />
    <path d="M381.158 448.751L233.199 443.846L227.059 300.383L401.782 304.291L381.158 448.751Z"
        fill="#4ABDAC" />
    <path
        d="M279.4 446.007C279.076 446.007 278.801 445.759 278.775 445.43L266.914 301.34C266.885 300.995 267.143 300.691 267.49 300.664C267.845 300.643 268.139 300.892 268.167 301.237L280.027 445.327C280.055 445.672 279.798 445.976 279.452 446.004C279.434 446.005 279.417 446.007 279.4 446.007Z"
        fill="#263238" />
    <path d="M381.158 448.751L420.926 442.697L433.452 309.297L401.782 304.291L381.158 448.751Z"
        fill="#4ABDAC" />
    <path d="M381.158 448.751L420.926 442.697L433.452 309.297L401.782 304.291L381.158 448.751Z"
        fill="black" />
    <path
        d="M245.843 416.193L242.196 330.959C241.815 322.062 249.034 314.696 257.936 314.895L368.538 317.368C377.775 317.574 384.755 325.806 383.448 334.952L371.186 420.851C370.074 428.636 363.279 434.336 355.421 434.075L260.73 430.936C252.676 430.668 246.189 424.243 245.843 416.193Z"
        fill="#263238" />
    <path
        d="M257.792 341.049L274.903 341.594L274.763 346.006L264.05 345.666L263.946 348.95L273.884 349.267L273.749 353.481L263.812 353.164L263.682 357.238L274.705 357.588L274.557 362.268L257.135 361.714L257.792 341.049Z"
        fill="white" />
    <path
        d="M278.08 362.38L278.737 341.716L289.379 342.055C291.352 342.118 292.856 342.335 293.887 342.707C294.919 343.079 295.739 343.732 296.35 344.669C296.96 345.606 297.244 346.731 297.201 348.047C297.165 349.194 296.889 350.175 296.374 350.991C295.859 351.808 295.164 352.461 294.293 352.95C293.737 353.261 292.981 353.51 292.024 353.696C292.777 353.974 293.323 354.246 293.662 354.509C293.891 354.687 294.22 355.06 294.648 355.629C295.076 356.198 295.361 356.635 295.502 356.941L298.403 363.028L291.189 362.798L287.977 356.375C287.57 355.544 287.202 355.001 286.872 354.746C286.421 354.412 285.905 354.234 285.322 354.216L284.758 354.198L284.492 362.586L278.08 362.38ZM284.885 350.293L287.577 350.378C287.868 350.387 288.435 350.312 289.277 350.151C289.703 350.08 290.055 349.875 290.334 349.536C290.612 349.197 290.759 348.801 290.773 348.35C290.795 347.683 290.6 347.164 290.188 346.794C289.776 346.423 288.988 346.22 287.823 346.182L285.018 346.093L284.885 350.293Z"
        fill="white" />
    <path
        d="M300.533 363.094L301.19 342.431L311.832 342.77C313.805 342.832 315.309 343.05 316.34 343.422C317.372 343.793 318.193 344.446 318.803 345.383C319.413 346.32 319.697 347.447 319.655 348.762C319.618 349.909 319.342 350.89 318.827 351.706C318.311 352.522 317.617 353.176 316.746 353.664C316.191 353.976 315.434 354.224 314.477 354.41C315.23 354.689 315.776 354.96 316.115 355.224C316.345 355.401 316.673 355.774 317.102 356.343C317.531 356.912 317.816 357.349 317.956 357.656L320.858 363.742L313.642 363.512L310.43 357.089C310.025 356.259 309.656 355.715 309.325 355.46C308.874 355.126 308.358 354.949 307.775 354.93L307.211 354.913L306.945 363.299L300.533 363.094ZM307.338 351.008L310.03 351.093C310.321 351.102 310.888 351.027 311.73 350.865C312.156 350.793 312.508 350.588 312.787 350.249C313.066 349.91 313.213 349.514 313.226 349.063C313.248 348.397 313.053 347.878 312.641 347.507C312.229 347.137 311.44 346.933 310.276 346.896L307.471 346.806L307.338 351.008Z"
        fill="white" />
    <path
        d="M321.935 353.447C322.043 350.073 323.065 347.477 325.004 345.657C326.944 343.838 329.59 342.982 332.945 343.089C336.384 343.198 339.005 344.205 340.806 346.111C342.609 348.016 343.456 350.632 343.351 353.959C343.274 356.375 342.805 358.343 341.943 359.863C341.08 361.382 339.868 362.548 338.304 363.359C336.741 364.171 334.813 364.539 332.519 364.466C330.189 364.392 328.273 363.96 326.769 363.168C325.266 362.377 324.065 361.164 323.167 359.526C322.269 357.888 321.858 355.862 321.935 353.447ZM328.319 353.678C328.252 355.764 328.593 357.275 329.339 358.211C330.085 359.147 331.125 359.636 332.46 359.679C333.832 359.723 334.908 359.31 335.688 358.442C336.468 357.573 336.895 355.983 336.969 353.67C337.031 351.726 336.684 350.292 335.928 349.37C335.172 348.447 334.122 347.964 332.778 347.922C331.49 347.88 330.442 348.304 329.633 349.19C328.824 350.077 328.386 351.573 328.319 353.678Z"
        fill="white" />
    <path
        d="M346.541 364.557L347.198 343.894L357.84 344.233C359.813 344.296 361.317 344.513 362.348 344.885C363.38 345.257 364.2 345.91 364.811 346.847C365.421 347.784 365.705 348.91 365.662 350.225C365.626 351.372 365.35 352.353 364.835 353.169C364.32 353.986 363.625 354.639 362.753 355.127C362.197 355.439 361.441 355.688 360.485 355.873C361.237 356.152 361.784 356.424 362.123 356.687C362.352 356.864 362.681 357.237 363.109 357.806C363.537 358.375 363.822 358.813 363.963 359.119L366.864 365.206L359.65 364.976L356.438 358.553C356.031 357.722 355.663 357.178 355.333 356.924C354.882 356.589 354.366 356.412 353.783 356.393L353.219 356.376L352.953 364.762L346.541 364.557ZM353.346 352.471L356.038 352.556C356.329 352.565 356.895 352.49 357.738 352.328C358.164 352.256 358.516 352.051 358.795 351.712C359.073 351.373 359.22 350.978 359.234 350.527C359.255 349.86 359.061 349.341 358.649 348.971C358.237 348.6 357.449 348.397 356.284 348.359L353.479 348.27L353.346 352.471Z"
        fill="white" />
    <path
        d="M356.703 399.666C356.256 399.666 355.812 399.486 355.485 399.13L344.733 387.363L333.131 397.962C332.459 398.577 331.416 398.528 330.802 397.858L320.05 386.09L308.448 396.69C307.776 397.304 306.732 397.256 306.119 396.585L295.367 384.818L283.765 395.419C283.444 395.714 283.009 395.868 282.579 395.849C282.142 395.829 281.732 395.637 281.436 395.314L270.684 383.547L259.082 394.146C258.41 394.761 257.368 394.712 256.754 394.042C256.139 393.37 256.187 392.326 256.859 391.712L269.677 380C270.348 379.383 271.391 379.432 272.006 380.104L282.759 391.872L294.361 381.271C294.682 380.976 295.116 380.823 295.546 380.84C295.983 380.86 296.394 381.053 296.689 381.375L307.442 393.143L319.044 382.543C319.714 381.928 320.758 381.976 321.372 382.648L332.125 394.415L343.726 383.816C344.398 383.199 345.441 383.247 346.056 383.92L357.921 396.905C358.535 397.576 358.487 398.62 357.815 399.234C357.499 399.525 357.1 399.666 356.703 399.666Z"
        fill="white" />
    <path d="M157.943 451.802L150.083 448.053L143.07 413.931L146.876 409.74L157.943 451.802Z"
        fill="#4ABDAC" />
    <path d="M157.944 451.802L168.375 445.708L159.432 417.595L146.877 409.74L157.944 451.802Z"
        fill="#4ABDAC" />
    <path d="M157.944 451.802L168.375 445.708L159.432 417.595L146.877 409.74L157.944 451.802Z"
        fill="black" />
    <path
        d="M329.009 458.004C328.713 458.004 328.422 457.999 328.141 457.991C324.674 457.896 321.94 455.008 322.036 451.541C322.131 448.075 324.995 445.35 328.485 445.436C338.16 445.753 358.637 439.809 370.334 428.454C371.057 427.752 371.938 427.234 372.904 426.946C392.733 420.995 400.114 433.017 400.419 433.532L389.608 439.925C389.608 439.925 389.65 440.012 389.753 440.155C389.632 439.989 386.825 436.338 377.881 438.597C363.202 451.996 340.67 458.004 329.009 458.004Z"
        fill="#263238" />
    <path d="M328.313 466.353L305.438 464.911L303.633 422.739L334.376 423.888L328.313 466.353Z"
        fill="#4ABDAC" />
    <path d="M328.313 466.353L333.659 461.031L336.974 434.735L334.376 423.888L328.313 466.353Z"
        fill="#4ABDAC" />
    <path d="M328.313 466.353L333.659 461.031L336.974 434.735L334.376 423.888L328.313 466.353Z"
        fill="black" />
    <path
        d="M460.84 450.382C460.046 450.382 459.245 450.133 458.563 449.615C445.507 439.693 427.86 422.076 421.087 405.081C420.988 404.834 420.917 404.575 420.873 404.311C417.571 384.676 414.416 343.344 414.282 341.593C414.125 339.519 415.679 337.708 417.754 337.551C419.823 337.399 421.639 338.948 421.796 341.024C421.828 341.446 425.015 383.183 428.237 402.659C434.991 419.183 453.303 436.152 463.122 443.614C464.779 444.874 465.101 447.237 463.842 448.894C463.102 449.87 461.978 450.382 460.84 450.382Z"
        fill="#263238" />
    <path
        d="M478.258 452.287C475.346 452.287 472.042 450.965 468.444 448.362C466.758 447.141 466.38 444.786 467.601 443.1C468.822 441.415 471.177 441.037 472.862 442.256C475.974 444.508 477.673 444.751 478.259 444.751C480.341 444.751 482.027 446.437 482.027 448.519C482.026 450.6 480.339 452.287 478.258 452.287Z"
        fill="#263238" />
    <path
        d="M469.498 448.254C473.529 436.278 490.058 438.644 495.751 440.422C501.443 442.201 506.571 444.439 509.655 446.455C512.738 448.471 512.787 451.837 508.676 453.76C503.607 456.131 490.89 454.027 490.89 454.027C497.473 456.91 490.877 461.528 479.328 456.992C475.568 455.514 468.075 452.642 469.498 448.254Z"
        fill="#4ABDAC" />
    <path
        d="M429.379 346.761C427.883 356.937 419.457 364.441 412.601 363.433C405.746 362.426 405.461 353.338 406.957 343.162C408.453 332.985 411.163 325.576 418.018 326.584C424.874 327.592 430.875 336.586 429.379 346.761Z"
        fill="#263238" />
    <path
        d="M263.603 306.14C264.171 306.14 264.632 305.679 264.632 305.111C264.632 304.543 264.171 304.082 263.603 304.082C263.035 304.082 262.574 304.543 262.574 305.111C262.574 305.679 263.035 306.14 263.603 306.14Z"
        fill="#263238" />
    <path
        d="M274.07 312.525C274.07 313.093 273.609 313.554 273.042 313.554C272.474 313.554 272.012 313.093 272.012 312.525C272.012 311.956 272.473 311.497 273.042 311.497C273.611 311.497 274.07 311.956 274.07 312.525Z"
        fill="#263238" />
    <path
        d="M275.221 434.238C275.221 434.807 274.76 435.267 274.192 435.267C273.623 435.267 273.162 434.806 273.162 434.238C273.162 433.669 273.623 433.209 274.192 433.209C274.76 433.208 275.221 433.669 275.221 434.238Z"
        fill="#263238" />
    <path
        d="M284.66 441.652C284.66 442.221 284.199 442.681 283.63 442.681C283.063 442.681 282.602 442.22 282.602 441.652C282.602 441.083 283.063 440.623 283.63 440.623C284.199 440.622 284.66 441.083 284.66 441.652Z"
        fill="#263238" />
    <path
        d="M103.633 454.002C100.643 454.002 96.6015 452.191 94.4224 449.042C94.2252 448.757 94.2955 448.367 94.5806 448.169C94.8657 447.971 95.2563 448.043 95.4548 448.329C97.7985 451.713 102.964 453.517 105.258 452.449C105.499 452.336 105.695 452.194 105.844 452.023C103.795 451.076 101.921 449.222 101.416 446.393C101.131 444.802 100.905 442.651 102.218 442.353C104.019 441.948 106.376 446.304 107.283 449.606C107.451 450.217 107.504 450.783 107.446 451.293C108.24 451.51 109.021 451.567 109.69 451.47C110.234 451.391 111.007 451.167 111.417 450.534C109.891 449.503 108.865 447.685 108.522 445.273C108.035 441.839 108.4 441.24 108.781 440.947C109.028 440.758 109.342 440.721 109.645 440.849C110.988 441.421 112.616 446.293 112.927 449.05C112.961 449.354 112.961 449.645 112.931 449.92C113.444 450.125 114.011 450.237 114.625 450.249C115.714 450.312 116.79 449.965 117.652 449.459C117.474 449.348 117.305 449.223 117.147 449.089C115.843 447.975 115.318 446.195 115.539 443.649C115.71 441.681 116.159 440.605 116.95 440.267C117.228 440.144 117.793 440.029 118.467 440.567C119.824 441.651 121.09 445.086 120.635 447.546C120.541 448.055 120.321 448.544 120.005 448.992C122.309 449.389 125.552 448.742 128.349 448.051C128.685 447.97 129.026 448.173 129.109 448.51C129.192 448.848 128.987 449.187 128.651 449.27C125.247 450.111 121.583 450.796 118.995 450.045C117.844 450.96 116.224 451.515 114.601 451.504C113.861 451.489 113.172 451.357 112.543 451.117C112.048 451.96 111.127 452.53 109.875 452.714C109.041 452.838 108.059 452.758 107.064 452.474C106.781 452.945 106.354 453.323 105.792 453.587C105.189 453.865 104.45 454.001 103.633 454.002ZM102.547 443.606C102.475 443.799 102.343 444.434 102.654 446.174C103.067 448.485 104.563 450.021 106.22 450.831C106.212 450.563 106.163 450.267 106.074 449.942C105.087 446.351 103.212 443.876 102.547 443.606ZM109.545 442.511C109.537 442.983 109.58 443.777 109.767 445.097C110.022 446.891 110.683 448.267 111.675 449.145C111.381 446.622 110.262 443.702 109.545 442.511ZM117.446 441.42H117.444C117.441 441.421 116.973 441.658 116.789 443.756C116.606 445.87 116.99 447.302 117.962 448.132C118.183 448.32 118.435 448.478 118.715 448.608C119.07 448.215 119.312 447.775 119.397 447.317C119.733 445.497 118.867 442.831 117.894 441.752C117.643 441.472 117.481 441.42 117.446 441.42Z"
        fill="#263238" />
    <path
        d="M287.464 463.496L290.868 457.593L287.464 451.69H283.82L285.879 457.593L283.82 463.496H287.464Z"
        fill="#263238" />
    <path
        d="M284.061 460.67C282.365 460.67 280.984 459.289 280.984 457.593C280.984 455.898 282.365 454.529 284.061 454.529L278.273 453.37L276.738 458.044L279.321 461.987L284.061 460.67Z"
        fill="#263238" />
    <path
        d="M284.556 451.69H277.736L274.332 457.593L277.736 463.496H284.556L287.96 457.593L284.556 451.69ZM281.152 460.67C279.457 460.67 278.075 459.289 278.075 457.593C278.075 455.898 279.457 454.529 281.152 454.529C282.848 454.529 284.217 455.898 284.217 457.593C284.217 459.289 282.848 460.67 281.152 460.67Z"
        fill="#4ABDAC" />
    <path
        d="M524.869 451.297L522.342 446.912L524.869 442.529H527.576L526.047 446.913L527.576 451.297H524.869Z"
        fill="#4ABDAC" />
    <path
        d="M527.396 449.198C528.656 449.198 529.682 448.172 529.682 446.912C529.682 445.654 528.656 444.636 527.396 444.636L531.695 443.776L532.835 447.247L530.917 450.175L527.396 449.198Z"
        fill="#4ABDAC" />
    <path
        d="M527.03 442.529H532.096L534.624 446.912L532.096 451.297H527.03L524.502 446.912L527.03 442.529ZM529.559 449.198C530.818 449.198 531.845 448.172 531.845 446.912C531.845 445.654 530.818 444.636 529.559 444.636C528.299 444.636 527.283 445.654 527.283 446.912C527.282 448.172 528.299 449.198 529.559 449.198Z"
        fill="#263238" />
    <path
        d="M430.743 457.116H436.418C437.895 457.116 439.104 455.908 439.104 454.429C439.104 452.952 437.895 451.743 436.418 451.743H430.743C429.265 451.743 428.057 452.952 428.057 454.429C428.057 455.908 429.265 457.116 430.743 457.116Z"
        fill="#263238" />
    <path
        d="M421.677 452.048C423.079 449.076 426.475 447.734 429.266 449.049C432.055 450.364 433.181 453.839 431.78 456.811C430.38 459.782 426.982 461.125 424.193 459.81C421.401 458.495 420.275 455.02 421.677 452.048Z"
        fill="#4ABDAC" />
    <path d="M423.274 459.786L424.83 460.52L430.242 449.043L428.685 448.309L423.274 459.786Z"
        fill="#263238" />
</svg>