<svg width="250" height="25" viewBox="0 0 250 25" fill="none" xmlns="http://www.w3.org/2000/svg">
    <path
        d="M136.516 2.95053C137.376 2.98659 138.084 2.98816 138.783 3.06435C142.068 3.42255 143.92 4.95224 144.339 7.62368C144.829 10.7467 143.665 12.7231 140.525 14.1034C140.379 14.1676 140.233 14.2313 140.091 14.2933C140.691 17.4919 142.49 19.4249 145.244 19.7183C145.244 20.6011 145.244 21.5015 145.244 22.401C142.686 22.8482 140.542 21.9892 139.304 19.8926C138.502 18.5332 137.813 17.1058 137.162 15.6713C136.77 14.8082 136.284 14.4329 135.23 14.4359C130.351 14.4502 130.351 14.4134 130.351 19.0877C130.351 20.1786 130.351 21.2696 130.351 22.4743C129.353 22.4743 128.47 22.4743 127.482 22.4743C127.482 16.0272 127.482 9.61793 127.482 2.95041C130.44 2.95041 133.4 2.95041 136.516 2.95053ZM140.853 10.5425C141.995 8.50047 141.605 6.42664 139.732 6.17373C136.673 5.7606 133.545 5.81766 130.435 5.67583C130.435 8.09808 130.435 10.1109 130.435 11.8605C132.717 11.7663 134.927 11.755 137.119 11.5528C138.32 11.442 139.489 11.009 140.853 10.5425Z"
        fill="black" />
    <path
        d="M98.8794 14.2451C97.5411 20.6202 91.2034 24.3939 84.9582 22.6463C78.8519 20.9377 75.5192 14.5646 77.79 8.93866C79.719 4.15962 85.4183 1.37885 90.7309 2.6247C96.0131 3.86343 99.3718 8.58015 98.8794 14.2451ZM95.1859 9.29861C93.2533 6.26808 90.4219 5.01132 86.7876 5.38732C81.2231 5.96303 78.0711 12.3285 81.2093 16.6312C83.5782 19.8789 88.188 21.0272 91.7595 19.2593C95.526 17.3948 96.9182 13.5724 95.1859 9.29861Z"
        fill="black" />
    <path
        d="M33.2773 11.5032C32.4587 9.92995 31.6402 8.35668 30.8217 6.78341C30.8991 6.70407 30.9764 6.62474 31.0538 6.54541C35.6667 9.81282 40.2796 13.0802 44.8924 16.3476C44.8401 16.4562 44.7878 16.5647 44.7355 16.6732C44.3624 16.5834 43.976 16.528 43.6183 16.3985C40.5228 15.2778 37.4026 14.2128 34.3525 12.9864C32.6807 12.3141 31.0365 12.229 29.2746 12.362C20.9953 12.9872 12.7107 13.548 4.07471 14.1568C4.58719 13.7545 4.83435 13.5249 5.11569 13.3449C9.67898 10.4255 14.267 7.54138 18.795 4.57213C19.642 4.01667 20.1759 4.11609 20.9365 4.62342C23.9261 6.61769 26.937 8.58411 29.9821 10.4987C30.8293 11.0313 31.8217 11.3498 32.9439 11.8335C33.186 11.768 33.2316 11.6356 33.2773 11.5032Z"
        fill="black" />
    <path
        d="M16.9044 24.4796C15.9001 24.1672 14.989 23.9559 14.1748 23.5597C13.0066 22.9911 12.7931 21.9991 13.8944 21.3906C15.5981 20.4492 17.4964 19.7862 19.3792 19.2072C21.2314 18.6375 23.1849 18.3784 25.0546 17.8532C25.5812 17.7053 25.9695 17.1007 26.4213 16.7055C25.8988 16.4222 25.3866 15.9174 24.8522 15.8946C22.7418 15.8047 20.6182 15.7672 18.5109 15.8903C12.8193 16.2228 7.13361 16.6498 1.44501 17.0315C0.974465 17.0631 0.499657 17.0357 0 16.7272C2.57227 16.4489 5.13824 16.0844 7.71807 15.9094C13.9411 15.4871 20.1681 15.102 26.3993 14.8216C27.8921 14.7544 29.4163 15.1083 30.9077 15.3666C31.3802 15.4484 31.7932 15.8485 32.2334 16.1029C31.8713 16.5107 31.5912 17.1183 31.1333 17.2926C28.7678 18.1927 26.3716 19.0245 23.9571 19.796C22.0754 20.3973 20.1512 20.8753 18.2459 21.408C18.2363 21.5859 18.2268 21.7639 18.2172 21.9418C19.1526 22.1665 20.0822 22.5595 21.0243 22.5895C29.2344 22.8505 37.4234 22.6827 45.5334 21.2181C45.9833 21.1368 46.5003 21.1867 46.9419 21.3157C48.4763 21.7639 49.9913 22.2738 51.5043 22.9601C40.0647 24.6576 28.6093 25.6764 16.9044 24.4796Z"
        fill="black" />
    <path
        d="M175.374 8.18278C175.374 9.37882 175.374 10.4215 175.374 11.313C178.135 11.1692 180.806 11.03 183.583 10.8854C183.583 11.9798 183.583 12.8497 183.583 14.0859C181.577 14.0859 179.581 13.9956 177.598 14.1103C175.463 14.2338 175.372 14.4176 175.376 16.4952C175.377 17.3847 175.392 18.2744 175.409 19.1638C175.411 19.2621 175.472 19.3592 175.58 19.6764C179.591 19.6764 183.683 19.6764 187.852 19.6764C187.852 20.7134 187.852 21.5305 187.852 22.4707C182.753 22.4707 177.686 22.4707 172.508 22.4707C172.508 16.0378 172.508 9.62516 172.508 3.07944C177.185 3.07944 181.869 3.07944 186.649 3.07944C186.649 3.97746 186.649 4.83234 186.649 5.86006C182.891 5.86006 179.222 5.86006 175.374 5.86006C175.374 6.69693 175.374 7.36317 175.374 8.18278Z"
        fill="black" />
    <path
        d="M205.288 7.24885C203.426 5.96064 201.483 5.19124 199.277 5.34449C198.498 5.39859 197.689 5.65758 196.988 6.00087C195.778 6.59322 195.056 7.60231 195.321 8.94836C195.585 10.2856 196.837 10.5015 197.968 10.632C199.584 10.8185 201.222 10.8166 202.84 10.9882C205.98 11.3212 207.92 12.7915 208.329 15.0532C208.907 18.2575 207.687 20.5436 204.638 21.9661C200.092 24.0872 194.477 22.886 191.2 19.0454C191.814 18.4364 192.433 17.8211 193.18 17.0794C195.063 19.1424 197.349 20.3791 200.195 20.0765C201.453 19.9428 202.733 19.5443 203.877 19.0139C205.114 18.4407 205.544 17.2663 205.366 15.9569C205.19 14.6635 204.208 14.0578 203.029 13.8803C201.586 13.6631 200.109 13.6655 198.65 13.5391C197.734 13.4598 196.804 13.3985 195.916 13.1881C193.933 12.7184 192.418 11.6431 192.055 9.60435C191.67 7.43941 192.338 5.53971 194.198 4.17621C198.085 1.32611 203.668 1.8769 207.627 5.68175C206.861 6.23698 206.123 6.77137 205.288 7.24885Z"
        fill="black" />
    <path
        d="M234.185 20.7434C232.931 22.1006 231.707 23.2091 229.527 22.3634C229.722 21.9282 229.924 21.4266 230.167 20.9436C232.361 16.5682 234.549 12.1898 236.767 7.82607C237.6 6.18795 238.821 4.6152 237.071 2.81143C240.067 2.1837 240.159 2.21955 241.322 4.58619C244.038 10.1104 246.75 15.6367 249.457 21.1649C249.659 21.5768 249.813 22.0102 250 22.4591C247.131 22.7844 247.14 22.7795 245.81 20.5139C245.641 20.2267 245.312 19.8057 245.07 19.8134C241.466 19.9268 237.78 19.1803 234.185 20.7434ZM236.034 16.1312C235.851 16.5732 235.667 17.0152 235.566 17.2573C238.392 17.0629 241.14 16.8738 244.063 16.6727C242.587 13.9252 241.214 11.3684 239.682 8.51499C238.387 11.2079 237.255 13.5602 236.034 16.1312Z"
        fill="black" />
    <path
        d="M112.42 22.9888C106.093 22.7562 103.328 19.9794 103.32 13.9968C103.316 10.393 103.319 6.78929 103.319 3.06831C104.316 3.06831 105.202 3.06831 106.274 3.06831C106.274 5.67027 106.254 8.2189 106.28 10.7671C106.298 12.4907 106.322 14.2177 106.448 15.936C106.581 17.7355 107.676 18.9062 109.379 19.5573C111.378 20.3216 113.421 20.3368 115.423 19.635C117.538 18.8939 118.614 17.3586 118.63 15.189C118.656 11.7364 118.646 8.28354 118.651 4.83081C118.652 4.26888 118.652 3.70695 118.652 3.04825C119.656 3.04825 120.499 3.04825 121.51 3.04825C121.543 3.55635 121.602 4.05401 121.603 4.5518C121.611 7.69072 121.611 10.8297 121.606 13.9686C121.596 20.0861 118.886 22.7913 112.42 22.9888Z"
        fill="black" />
    <path
        d="M155.224 12.1606C156.222 14.4866 157.176 16.7001 158.272 19.2464C159.819 15.6641 161.232 12.3986 162.638 9.13071C163.22 7.7794 163.781 6.41994 164.365 5.06962C165.418 2.63608 165.486 2.60667 168.49 3.16842C167.01 6.55219 165.542 9.90736 164.075 13.263C162.854 16.0556 161.67 18.8645 160.376 21.6254C160.173 22.058 159.467 22.5437 159.004 22.5337C158.073 22.5136 156.546 22.4244 156.315 21.919C153.504 15.7589 150.884 9.5179 148.213 3.2927C150.634 2.47266 151.233 2.71799 152.108 4.79147C153.13 7.21125 154.156 9.62925 155.224 12.1606Z"
        fill="black" />
    <path
        d="M216.464 5.87318C214.47 5.87275 212.636 5.87275 210.725 5.87275C210.725 4.86076 210.725 4.04039 210.725 3.07788C216.405 3.07788 222.077 3.07788 227.9 3.07788C227.9 3.87954 227.9 4.73381 227.9 5.83729C225.654 5.83729 223.362 5.83729 220.876 5.83729C220.876 11.5483 220.876 17.0176 220.876 22.5357C219.821 22.5357 218.966 22.5357 217.883 22.5357C217.883 21.813 217.883 21.1509 217.883 20.4888C217.883 16.0905 217.867 11.6921 217.895 7.29394C217.901 6.39823 217.833 5.69832 216.464 5.87318Z"
        fill="black" />
    <path
        d="M74.6105 4.97214C74.184 5.36666 73.7682 5.81699 73.3326 5.83547C71.4424 5.91565 69.5465 5.86985 67.4677 5.86985C67.4677 11.4732 67.4677 16.9403 67.4677 22.5005C66.4403 22.5005 65.5975 22.5005 64.5548 22.5005C64.5548 17.0222 64.5548 11.5583 64.5548 5.89975C62.0603 5.89975 59.7579 5.89975 57.3696 5.89975C57.3696 4.84212 57.3696 3.98172 57.3696 3.03467C63.1153 3.03467 68.7912 3.03467 74.612 3.03467C74.612 3.69615 74.612 4.26268 74.6105 4.97214Z"
        fill="black" />
    <path
        d="M13.8651 4.39131C15.7542 2.89996 17.5544 1.48015 19.4311 0C21.4004 1.61821 23.2919 3.17245 25.3071 4.8284C26.6842 3.82012 28.0526 2.81823 29.5634 1.71202C33.6237 5.03738 37.6746 8.35514 41.7256 11.6729C41.5949 11.8361 41.4643 11.9994 41.3336 12.1626C37.5644 9.44571 33.7952 6.72882 29.8901 3.91399C29.0761 4.66072 28.2773 5.39361 27.4159 6.18384C28.2301 7.02333 28.952 7.76761 29.6738 8.51189C29.589 8.62999 29.5042 8.74809 29.4194 8.86619C29.0466 8.69204 28.6418 8.56207 28.3061 8.33671C25.7224 6.60267 23.1324 4.8762 20.5898 3.08749C19.8236 2.54853 19.298 2.48078 18.4682 3.05243C14.9808 5.45494 11.4317 7.77464 7.88808 10.1006C7.41124 10.4136 6.83761 10.5898 6.12305 10.5057C8.67414 8.49142 11.2253 6.47715 13.8651 4.39131Z"
        fill="black" />
</svg>