<svg width="16" height="16" viewBox="0 0 16 16" fill="none" xmlns="http://www.w3.org/2000/svg">
    <path
        d="M13.8873 2.11122L10.1161 5.88246M13.8873 5.88246L10.1161 2.11122M7.00016 4.16665C7.00016 5.73145 5.73164 6.99998 4.16683 6.99998C2.60202 6.99998 1.3335 5.73145 1.3335 4.16665C1.3335 2.60184 2.60202 1.33331 4.16683 1.33331C5.73164 1.33331 7.00016 2.60184 7.00016 4.16665ZM14.6668 11.8333C14.6668 13.3981 13.3983 14.6666 11.8335 14.6666C10.2687 14.6666 9.00016 13.3981 9.00016 11.8333C9.00016 10.2685 10.2687 8.99998 11.8335 8.99998C13.3983 8.99998 14.6668 10.2685 14.6668 11.8333ZM7.00016 11.8333C7.00016 13.3981 5.73164 14.6666 4.16683 14.6666C2.60202 14.6666 1.3335 13.3981 1.3335 11.8333C1.3335 10.2685 2.60202 8.99998 4.16683 8.99998C5.73164 8.99998 7.00016 10.2685 7.00016 11.8333Z"
        stroke="white" stroke-linecap="round" />
</svg>