<svg width="107" height="106" viewBox="0 0 107 106" fill="none" xmlns="http://www.w3.org/2000/svg">
    <path
        d="M53.4892 79.3439C49.5002 79.3439 46.2628 82.2839 46.2628 85.9064C46.2628 89.5289 49.5002 92.4689 53.4892 92.4689C57.4781 92.4689 60.7156 89.5289 60.7156 85.9064C60.7156 82.2839 57.4831 79.3439 53.4892 79.3439Z"
        fill="#FCED1A" fill-opacity="0.53" />
    <path
        d="M104.493 83.1108L68.2938 8.57393C65.2924 3.57761 59.757 0.593933 53.4892 0.593933C47.2215 0.593933 41.6863 3.57761 38.5982 8.73574L2.57721 82.949C-0.298886 87.7396 -0.188006 93.4053 2.88072 98.0996C5.94944 102.789 11.3692 105.594 17.3816 105.594H89.6019C95.6142 105.594 101.034 102.789 104.103 98.0996C107.167 93.4051 107.282 87.7396 104.493 83.1108ZM99.9598 95.864C97.7677 99.2197 93.8944 101.219 89.6019 101.219H17.3816C13.0891 101.219 9.21576 99.2197 7.02368 95.864C4.83161 92.5083 4.74986 88.4658 6.89835 84.8784L42.9195 10.6651C45.0585 7.09942 49.0139 4.96886 53.4892 4.96886C57.9646 4.96886 61.9199 7.09942 63.9722 10.5076L100.172 85.0445C102.229 88.4658 102.147 92.5126 99.9598 95.864Z"
        fill="#FCED1A" fill-opacity="0.53" />
    <path
        d="M46.8554 29.5171C45.1597 31.2191 44.3359 33.4983 44.5864 35.7777L48.6862 73.0002C48.8065 74.1202 49.8471 74.969 51.0853 74.969H55.9028C57.141 74.969 58.1767 74.1202 58.302 73.0002L62.4018 35.7777C62.6523 33.4983 61.8285 31.2191 60.1328 29.5171C56.7364 26.1177 50.2423 26.1177 46.8554 29.5171Z"
        fill="#FCED1A" fill-opacity="0.53" />
</svg>