<svg width="441" height="358" viewBox="0 0 441 358" fill="none" xmlns="http://www.w3.org/2000/svg">
    <path
        d="M226.041 358C322.966 358 401.541 279.426 401.541 182.5C401.541 85.574 322.966 7 226.041 7C129.115 7 50.5405 85.574 50.5405 182.5C50.5405 279.426 129.115 358 226.041 358Z"
        fill="#094E44" />
    <path
        d="M61.5405 75C67.6157 75 72.5405 70.0751 72.5405 64C72.5405 57.9249 67.6157 53 61.5405 53C55.4654 53 50.5405 57.9249 50.5405 64C50.5405 70.0751 55.4654 75 61.5405 75Z"
        fill="#094E44" />
    <path
        d="M346.041 41C357.362 41 366.541 31.8218 366.541 20.5C366.541 9.17816 357.362 0 346.041 0C334.719 0 325.541 9.17816 325.541 20.5C325.541 31.8218 334.719 41 346.041 41Z"
        fill="#094E44" />
    <path
        d="M65.0405 315C75.8101 315 84.5405 306.27 84.5405 295.5C84.5405 284.73 75.8101 276 65.0405 276C54.271 276 45.5405 284.73 45.5405 295.5C45.5405 306.27 54.271 315 65.0405 315Z"
        fill="#094E44" />
    <path
        d="M414.041 296C424.81 296 433.541 287.27 433.541 276.5C433.541 265.73 424.81 257 414.041 257C403.271 257 394.541 265.73 394.541 276.5C394.541 287.27 403.271 296 414.041 296Z"
        fill="#094E44" />
    <path
        d="M376.041 308C381.287 308 385.541 303.747 385.541 298.5C385.541 293.253 381.287 289 376.041 289C370.794 289 366.541 293.253 366.541 298.5C366.541 303.747 370.794 308 376.041 308Z"
        fill="#094E44" />
    <path
        d="M255.331 34.537C254.751 34.414 254.751 33.586 255.331 33.463L264.096 31.599C264.307 31.554 264.472 31.389 264.518 31.178L266.405 22.474C266.53 21.897 267.353 21.897 267.478 22.474L269.366 31.178C269.412 31.389 269.577 31.554 269.788 31.599L278.555 33.463C279.135 33.586 279.135 34.414 278.555 34.537L269.788 36.401C269.577 36.446 269.412 36.611 269.366 36.822L267.478 45.526C267.353 46.103 266.53 46.103 266.405 45.526L264.518 36.822C264.472 36.611 264.307 36.446 264.096 36.401L255.331 34.537Z"
        fill="#2F8377" />
    <path
        d="M41.7635 189.622C41.9873 188.565 43.4964 188.565 43.7202 189.622L47.063 205.415C47.1444 205.799 47.444 206.101 47.8284 206.185L63.4576 209.589C64.5076 209.818 64.5076 211.315 63.4576 211.544L47.8284 214.948C47.444 215.032 47.1444 215.334 47.063 215.718L43.7202 231.511C43.4964 232.568 41.9873 232.568 41.7635 231.511L38.4206 215.718C38.3391 215.334 38.0396 215.032 37.6552 214.948L22.0257 211.544C20.9762 211.315 20.9762 209.818 22.0257 209.589L37.6552 206.185C38.0396 206.101 38.3391 205.799 38.4206 205.415L41.7635 189.622Z"
        fill="#2F8377" />
    <path
        d="M382.886 68.622C383.109 67.565 384.619 67.565 384.842 68.622L386.792 77.835C386.874 78.22 387.174 78.521 387.558 78.605L396.702 80.597C397.751 80.826 397.751 82.323 396.702 82.551L387.558 84.543C387.174 84.627 386.874 84.928 386.792 85.313L384.842 94.526C384.619 95.583 383.109 95.583 382.886 94.526L380.936 85.313C380.854 84.928 380.555 84.627 380.17 84.543L371.026 82.551C369.977 82.323 369.977 80.826 371.026 80.597L380.17 78.605C380.555 78.521 380.854 78.22 380.936 77.835L382.886 68.622Z"
        fill="#2F8377" />
    <path
        d="M423.2 216.331L426.262 230.798L440.523 233.905L426.262 237.011L423.2 251.479L420.138 237.011L405.877 233.905L420.138 230.798L423.2 216.331Z"
        fill="#2F8377" />
    <path
        d="M147.08 110.873L147.131 110.899L147.184 110.921C153.142 113.514 157.431 115.759 160.386 117.735C163.39 119.743 164.781 121.323 165.296 122.491C165.717 123.444 165.622 124.265 164.91 125.293C164.107 126.452 162.597 127.715 160.379 129.151C158.251 130.528 155.676 131.94 152.825 133.503L152.588 133.634C149.67 135.234 146.504 136.976 143.421 138.926C137.291 142.803 131.228 147.655 127.906 154.232C124.557 160.864 124.611 168.54 125.589 175.638C126.081 179.209 126.819 182.711 127.525 185.936C127.615 186.35 127.705 186.759 127.794 187.162C128.403 189.932 128.956 192.446 129.301 194.675C129.702 197.269 129.771 199.194 129.455 200.507C129.306 201.129 129.089 201.528 128.852 201.792C128.628 202.043 128.3 202.269 127.754 202.417C126.558 202.743 124.452 202.658 120.924 201.599C117.486 200.566 112.961 198.691 107.064 195.775C91.0356 184.551 79.9656 173.105 74.3636 161.651C68.7986 150.271 68.5836 138.809 74.4316 127.229C86.0676 104.185 118.418 96.399 147.08 110.873Z"
        fill="url(#paint0_linear_31_58)" stroke="#297066" stroke-width="4" />
    <path d="M8.27222 103.038L9.46772 102.939C33.3748 100.961 57.3026 106.507 77.9006 118.801"
        stroke="#297066" stroke-width="4" />
    <path d="M1 116.687L2.9938 116.516C26.6243 114.483 50.3036 119.829 70.7696 131.815"
        stroke="#297066" stroke-width="4" />
    <path
        d="M192.189 186.693C185.328 200.28 177.572 211.293 167.477 216.839C157.561 222.286 144.958 222.674 127.783 214.001C105.766 202.883 98.0867 172.57 111.524 145.96C124.952 119.369 153.874 107.551 175.885 118.63C193.654 128.766 200.796 139.155 202.17 149.977C203.57 161.007 199.082 173.043 192.189 186.693Z"
        fill="#0C5248" stroke="#297066" stroke-width="4" />
    <path
        d="M183.334 123.204C164.051 114.593 138.813 129.124 126.963 155.66C115.113 182.196 121.138 210.688 140.421 219.3C159.704 227.911 184.942 213.38 196.792 186.844C208.643 160.308 202.617 131.816 183.334 123.204Z"
        fill="white" />
    <path
        d="M196.828 189.035C190.105 202.348 180.047 212.308 169.305 217.693C158.563 223.078 147.272 223.842 137.831 219.074C128.39 214.307 122.302 204.767 120.259 192.926C118.216 181.085 120.259 167.079 126.982 153.766C133.705 140.452 143.763 130.493 154.505 125.108C165.247 119.723 176.538 118.959 185.978 123.726C195.419 128.494 201.507 138.033 203.551 149.875C205.594 161.716 203.55 175.722 196.828 189.035Z"
        fill="#1E1E1E" stroke="#297066" stroke-width="4" />
    <path
        d="M167.634 155.376C169.694 151.298 174.203 149.781 177.549 151.47C180.895 153.16 182.352 157.69 180.292 161.768C178.233 165.847 173.723 167.364 170.377 165.674C167.031 163.985 165.574 159.455 167.634 155.376Z"
        fill="#297066" stroke="#297066" stroke-width="4" />
    <path
        d="M152.805 184.738C154.864 180.66 159.374 179.143 162.72 180.832C166.066 182.522 167.523 187.052 165.463 191.13C163.404 195.209 158.894 196.726 155.548 195.036C152.202 193.346 150.745 188.817 152.805 184.738Z"
        fill="#297066" stroke="#297066" stroke-width="4" />
    <path
        d="M256.282 174.584L256.348 174.552L256.41 174.514C293.222 152.588 337.21 159.855 354.98 189.689C372.75 219.523 358.191 261.663 321.379 283.59L321.33 283.619L321.281 283.652C316.048 287.197 311.913 289.442 308.646 290.657C305.36 291.879 303.163 291.98 301.673 291.542C300.265 291.129 299.161 290.138 298.248 288.351C297.308 286.511 296.652 283.976 296.154 280.786C295.66 277.614 295.344 273.967 295.001 269.956L294.983 269.743C294.648 265.817 294.286 261.577 293.702 257.254C292.516 248.464 290.394 239.145 285.564 231.036C280.737 222.931 273.562 216.574 266.405 211.277C262.896 208.68 259.355 206.313 256.074 204.119L255.864 203.978C252.504 201.731 249.448 199.682 246.895 197.708C244.328 195.723 242.408 193.918 241.236 192.204C240.094 190.534 239.753 189.095 240.056 187.686C240.377 186.197 241.499 184.354 244.13 182.108C246.747 179.874 250.681 177.389 256.282 174.584Z"
        fill="url(#paint1_linear_31_58)" stroke="#297066" stroke-width="4" />
    <path d="M428.59 133.143L427.85 134.552C413.054 162.735 389.817 185.587 361.391 199.91"
        stroke="#297066" stroke-width="4" />
    <path d="M418.477 115.28L417.25 117.635C402.712 145.547 379.877 168.265 351.89 182.658"
        stroke="#297066" stroke-width="4" />
    <path d="M203.558 197.922L214.414 191.455L223.297 186.165" stroke="#297066" stroke-width="4" />
    <path
        d="M218.769 187.566L218.855 187.525L218.936 187.477C247.445 170.496 287.232 183.703 307.606 217.908C327.974 252.104 320.648 293.366 292.158 310.355C268.444 323.613 251.505 324.298 238.061 317.893C224.413 311.39 213.849 297.371 203.465 279.938C193.134 262.592 185.961 244.654 186.833 228.539C187.266 220.531 189.686 212.961 194.726 206.082C199.776 199.19 207.528 192.893 218.769 187.566Z"
        fill="#0C5248" stroke="#297066" stroke-width="4" />
    <path
        d="M197.545 283.466C187.354 266.355 183.317 247.864 184.944 231.849C186.572 215.833 193.832 202.431 206.107 195.12C218.383 187.808 233.625 187.807 248.483 194.003C263.34 200.199 277.677 212.555 287.869 229.666C298.06 246.777 302.097 265.268 300.47 281.283C298.842 297.299 291.582 310.7 279.307 318.012C267.031 325.324 251.789 325.325 236.931 319.129C222.074 312.933 207.737 300.576 197.545 283.466Z"
        fill="#1E1E1E" stroke="#297066" stroke-width="4" />
    <path
        d="M259.259 268.471C261.771 272.69 260.388 278.146 256.17 280.659L196.617 316.131C192.399 318.643 186.942 317.26 184.43 313.042C181.917 308.824 183.3 303.367 187.518 300.855L247.071 265.383C251.29 262.87 256.746 264.253 259.259 268.471Z"
        fill="#0C5248" stroke="#297066" stroke-width="4" />
    <path
        d="M234.259 230.471C236.771 234.69 235.388 240.146 231.17 242.659L171.617 278.131C167.399 280.643 161.942 279.26 159.43 275.042C156.917 270.824 158.3 265.367 162.518 262.855L222.071 227.383C226.29 224.87 231.746 226.253 234.259 230.471Z"
        fill="#0C5248" stroke="#297066" stroke-width="4" />
    <defs>
        <linearGradient id="paint0_linear_31_58" x1="133.499" y1="101.501" x2="89.2926" y2="189.043"
            gradientUnits="userSpaceOnUse">
            <stop stop-color="#4ABDAC" stop-opacity="0.81" />
            <stop offset="1" stop-color="#0E2522" />
        </linearGradient>
        <linearGradient id="paint1_linear_31_58" x1="345.95" y1="271.504" x2="278.691" y2="158.585"
            gradientUnits="userSpaceOnUse">
            <stop stop-color="#0E2522" />
            <stop offset="1" stop-color="#4ABDAC" stop-opacity="0.81" />
        </linearGradient>
    </defs>
</svg>