<svg width="320" height="310" viewBox="0 0 320 310" fill="none" xmlns="http://www.w3.org/2000/svg">
    <path d="M276.813 76.5418V88.6882V76.5418Z" fill="#3FA294" />
    <path d="M276.813 76.5418V88.6882" stroke="#3FA294" stroke-linecap="round"
        stroke-linejoin="round" />
    <path d="M271.032 82.6012H282.595H271.032Z" fill="#3FA294" />
    <path d="M271.032 82.6012H282.595" stroke="#3FA294" stroke-linecap="round"
        stroke-linejoin="round" />
    <path d="M39.7445 29.6755V41.7937V29.6755Z" fill="#3FA294" />
    <path d="M39.7445 29.6755V41.7937" stroke="#3FA294" stroke-linecap="round"
        stroke-linejoin="round" />
    <path d="M33.9364 35.7348H45.5263H33.9364Z" fill="#3FA294" />
    <path d="M33.9364 35.7348H45.5263" stroke="#3FA294" stroke-linecap="round"
        stroke-linejoin="round" />
    <path
        d="M131.856 4.17094C131.856 5.44245 130.878 6.43275 129.721 6.43275C128.564 6.43275 127.586 5.44245 127.586 4.17094C127.586 2.89943 128.564 1.90912 129.721 1.90912C130.878 1.90912 131.856 2.89942 131.856 4.17094Z"
        fill="#3FA294" stroke="#3FA294" />
    <path
        d="M214.212 116.729C191.704 116.729 168.793 115.771 147.361 109.515C126.332 103.399 107.025 91.5345 89.8148 77.81C78.5476 68.8764 68.3022 61.7745 53.6736 62.8454C39.3505 63.6672 25.66 69.2994 14.6284 78.9091C-3.98001 95.8182 -1.18338 127.466 6.26537 149.702C17.4519 183.182 51.4955 206.375 80.4299 221.537C113.855 239.038 150.588 249.184 187.401 255.045C219.67 260.175 261.136 263.923 289.102 241.828C314.783 221.537 321.828 175.206 315.536 143.925C314.011 134.675 309.316 126.327 302.333 120.449C284.289 106.64 257.371 115.855 237.095 116.335C229.566 116.504 221.902 116.701 214.212 116.729Z"
        fill="#143833" />
    <path
        d="M159.139 309.859C213.659 309.859 257.855 306.97 257.855 303.405C257.855 299.84 213.659 296.952 159.139 296.952C104.62 296.952 60.4235 299.84 60.4235 303.405C60.4235 306.97 104.62 309.859 159.139 309.859Z"
        fill="#2F8377" />
    <path
        d="M201.069 10.7689L69.6401 29.3919C65.4312 29.9885 62.4802 34.0478 63.0492 38.4591L88.5368 236.02C89.106 240.431 92.9794 243.524 97.1886 242.927L228.618 224.304C232.827 223.708 235.778 219.648 235.209 215.237L209.721 17.6763C209.152 13.265 205.279 10.1725 201.069 10.7689Z"
        fill="#3FA596" />
    <path
        d="M244.733 39.7645H112.108C107.86 39.7645 104.417 43.3732 104.417 47.8245V247.183C104.417 251.634 107.86 255.243 112.108 255.243H244.733C248.98 255.243 252.424 251.634 252.424 247.183V47.8245C252.424 43.3732 248.98 39.7645 244.733 39.7645Z"
        fill="#2F8377" stroke="#88D3C8" stroke-linecap="round" stroke-linejoin="round" />
    <path
        d="M210.285 194.539H146.527C144.136 194.539 142.198 196.571 142.198 199.076V199.105C142.198 201.61 144.136 203.642 146.527 203.642H210.285C212.677 203.642 214.615 201.61 214.615 199.105V199.076C214.615 196.571 212.677 194.539 210.285 194.539Z"
        fill="#88D3C8" />
    <path
        d="M208 231.739H146.824C146.096 231.739 145.506 232.357 145.506 233.12V233.543C145.506 234.305 146.096 234.924 146.824 234.924H208C208.728 234.924 209.318 234.305 209.318 233.543V233.12C209.318 232.357 208.728 231.739 208 231.739Z"
        fill="#88D3C8" />
    <path
        d="M223.597 216.831H133.486C132.52 216.831 131.738 217.651 131.738 218.662C131.738 219.674 132.52 220.494 133.486 220.494H223.597C224.562 220.494 225.345 219.674 225.345 218.662C225.345 217.651 224.562 216.831 223.597 216.831Z"
        fill="#88D3C8" />
    <path
        d="M240.081 46.3306H116.76C113.701 46.3306 111.22 48.9298 111.22 52.1361V164.215C111.22 167.421 113.701 170.021 116.76 170.021H240.081C243.14 170.021 245.62 167.421 245.62 164.215V52.1361C245.62 48.9298 243.14 46.3306 240.081 46.3306Z"
        fill="url(#paint0_linear_25_24)" stroke="#88D3C8" stroke-linecap="round"
        stroke-linejoin="round" />
    <path
        d="M194.877 135.273C195.756 135.251 196.607 134.949 197.318 134.408C198.029 133.867 198.566 133.112 198.858 132.244C199.15 131.375 199.183 130.434 198.952 129.545C198.721 128.657 198.238 127.863 197.566 127.269C191.957 122.4 184.886 119.767 177.604 119.834C170.32 119.901 163.295 122.664 157.768 127.635C157.102 128.227 156.624 129.017 156.396 129.901C156.169 130.784 156.204 131.719 156.495 132.582C156.787 133.444 157.323 134.193 158.03 134.729C158.738 135.265 159.584 135.563 160.457 135.583L194.877 135.273Z"
        fill="#2F8377" stroke="#88D3C8" stroke-linecap="round" stroke-linejoin="round" />
    <path d="M216.847 107.063L201.17 97.5936L216.847 88.0964" stroke="#88D3C8" stroke-width="0.71"
        stroke-linecap="round" stroke-linejoin="round" />
    <path d="M138.703 107.063L154.38 97.5936L138.703 88.0964" stroke="#88D3C8" stroke-width="0.71"
        stroke-linecap="round" stroke-linejoin="round" />
    <path d="M52.733 167.174V179.321V167.174Z" fill="#3FA294" />
    <path d="M52.733 167.174V179.321" stroke="#3FA294" stroke-linecap="round"
        stroke-linejoin="round" />
    <path d="M46.9513 173.234H58.5412H46.9513Z" fill="#3FA294" />
    <path d="M46.9513 173.234H58.5412" stroke="#3FA294" stroke-linecap="round"
        stroke-linejoin="round" />
    <path
        d="M274.055 173.008C274.055 174.28 273.076 175.27 271.919 175.27C270.762 175.27 269.784 174.28 269.784 173.008C269.784 171.737 270.762 170.746 271.919 170.746C273.076 170.746 274.055 171.737 274.055 173.008Z"
        fill="#3FA294" stroke="#3FA294" />
    <defs>
        <linearGradient id="paint0_linear_25_24" x1="178" y1="51.5" x2="178" y2="150.5"
            gradientUnits="userSpaceOnUse">
            <stop stop-color="#0E2522" />
            <stop offset="1" stop-color="#4ABDAC" stop-opacity="0.81" />
        </linearGradient>
    </defs>
</svg>