<svg width="420" height="386" viewBox="0 0 420 386" fill="none" xmlns="http://www.w3.org/2000/svg">
    <path
        d="M204.802 386C301.728 386 380.302 307.426 380.302 210.5C380.302 113.574 301.728 35 204.802 35C107.876 35 29.3022 113.574 29.3022 210.5C29.3022 307.426 107.876 386 204.802 386Z"
        fill="#143833" />
    <path
        d="M40.3022 103C46.3774 103 51.3022 98.0751 51.3022 92C51.3022 85.9249 46.3774 81 40.3022 81C34.2271 81 29.3022 85.9249 29.3022 92C29.3022 98.0751 34.2271 103 40.3022 103Z"
        fill="#143833" />
    <path
        d="M329.802 41C341.124 41 350.302 31.8218 350.302 20.5C350.302 9.17816 341.124 0 329.802 0C318.48 0 309.302 9.17816 309.302 20.5C309.302 31.8218 318.48 41 329.802 41Z"
        fill="#143833" />
    <path
        d="M43.8022 343C54.5718 343 63.3022 334.27 63.3022 323.5C63.3022 312.73 54.5718 304 43.8022 304C33.0327 304 24.3022 312.73 24.3022 323.5C24.3022 334.27 33.0327 343 43.8022 343Z"
        fill="#143833" />
    <path
        d="M392.802 324C403.572 324 412.302 315.27 412.302 304.5C412.302 293.73 403.572 285 392.802 285C382.033 285 373.302 293.73 373.302 304.5C373.302 315.27 382.033 324 392.802 324Z"
        fill="#143833" />
    <path
        d="M354.802 336C360.049 336 364.302 331.747 364.302 326.5C364.302 321.253 360.049 317 354.802 317C349.556 317 345.302 321.253 345.302 326.5C345.302 331.747 349.556 336 354.802 336Z"
        fill="#143833" />
    <path
        d="M401.96 244.331L405.023 258.798L419.283 261.905L405.023 265.011L401.96 279.479L398.898 265.011L384.637 261.905L398.898 258.798L401.96 244.331Z"
        fill="#2F8377" />
    <path
        d="M383.647 96.622C383.87 95.565 385.38 95.565 385.603 96.622L387.553 105.835C387.635 106.22 387.935 106.521 388.319 106.605L397.463 108.597C398.512 108.826 398.512 110.323 397.463 110.551L388.319 112.543C387.935 112.627 387.635 112.928 387.553 113.313L385.603 122.526C385.38 123.583 383.87 123.583 383.647 122.526L381.697 113.313C381.615 112.928 381.316 112.627 380.931 112.543L371.787 110.551C370.738 110.323 370.738 108.826 371.787 108.597L380.931 106.605C381.316 106.521 381.615 106.22 381.697 105.835L383.647 96.622Z"
        fill="#2F8377" />
    <path
        d="M20.5249 217.622C20.7487 216.565 22.2578 216.565 22.4816 217.622L25.8244 233.415C25.9058 233.799 26.2054 234.101 26.5898 234.185L42.219 237.589C43.269 237.818 43.269 239.315 42.219 239.544L26.5898 242.948C26.2054 243.032 25.9058 243.334 25.8244 243.718L22.4816 259.511C22.2578 260.568 20.7487 260.568 20.5249 259.511L17.1821 243.718C17.1006 243.334 16.801 243.032 16.4166 242.948L0.787125 239.544C-0.262375 239.315 -0.262375 237.818 0.787125 237.589L16.4166 234.185C16.801 234.101 17.1006 233.799 17.1821 233.415L20.5249 217.622Z"
        fill="#2F8377" />
    <path
        d="M82.8273 49.537C82.2483 49.414 82.2483 48.586 82.8273 48.463L91.5933 46.599C91.8043 46.554 91.9703 46.389 92.0153 46.178L93.9033 37.474C94.0283 36.897 94.8513 36.897 94.9763 37.474L96.8633 46.178C96.9093 46.389 97.0743 46.554 97.2863 46.599L106.051 48.463C106.631 48.586 106.631 49.414 106.051 49.537L97.2863 51.401C97.0743 51.446 96.9093 51.611 96.8633 51.822L94.9763 60.526C94.8513 61.103 94.0283 61.103 93.9033 60.526L92.0153 51.822C91.9703 51.611 91.8043 51.446 91.5933 51.401L82.8273 49.537Z"
        fill="#2F8377" />
    <path
        d="M241.302 257C302.606 257 352.302 207.304 352.302 146C352.302 84.6964 302.606 35 241.302 35C179.999 35 130.302 84.6964 130.302 146C130.302 207.304 179.999 257 241.302 257Z"
        fill="#297066" />
    <path
        d="M241.302 239C292.665 239 334.302 197.362 334.302 146C334.302 94.6375 292.665 53 241.302 53C189.94 53 148.302 94.6375 148.302 146C148.302 197.362 189.94 239 241.302 239Z"
        fill="url(#paint0_linear_0_1)" />
    <path
        d="M96.5464 351.626L156.538 268.304L159.204 266.304L165.204 264.971H173.869L178.535 268.304L183.201 270.303L187.201 274.969L190.534 282.302L138.54 380.289L132.541 383.622H125.209L115.21 380.289L107.211 376.956L99.8794 366.958L96.5464 362.958V351.626Z"
        fill="#297066" />
    <path d="M201.866 250.306L186.657 274.969" stroke="#297066" stroke-width="4" />
    <path d="M183.99 242.307L169.325 264.304" stroke="#297066" stroke-width="4" />
    <path d="M160.538 264.971L95.8794 353.626" stroke="#297066" stroke-width="4" />
    <path d="M189.868 280.968L137.874 381.622" stroke="#297066" stroke-width="4" />
    <path
        d="M159.204 266.304L160.302 265.693C162.702 264.356 165.461 263.804 168.191 264.113C169.305 264.24 170.399 264.508 171.446 264.912L173.325 265.637L173.958 265.848C177.487 267.024 180.693 269.006 183.324 271.636L185.391 273.704C186.232 274.544 186.966 275.484 187.577 276.504C188.293 277.696 188.834 278.986 189.183 280.332L189.867 282.968"
        stroke="#297066" stroke-width="4" />
    <path
        d="M139.207 380.289L136.368 381.566C133.618 382.803 130.651 383.489 127.637 383.583C125.296 383.657 122.958 383.373 120.702 382.742L118.79 382.207L118.149 381.989C112.482 380.066 107.321 376.891 103.05 372.7L100.58 370.277C98.6504 368.382 97.2034 366.052 96.3624 363.481C95.3154 360.283 95.2494 356.845 96.1714 353.609L96.5464 352.293"
        stroke="#297066" stroke-width="4" />
    <defs>
        <linearGradient id="paint0_linear_0_1" x1="289.802" y1="60" x2="196.802" y2="235.5"
            gradientUnits="userSpaceOnUse">
            <stop stop-color="#0E2522" />
            <stop offset="1" stop-color="#4ABDAC" stop-opacity="0.81" />
        </linearGradient>
    </defs>
</svg>